<?xml version="1.0" encoding="UTF-8" standalone="no"?>
<!DOCTYPE svg PUBLIC "-//W3C//DTD SVG 1.1//EN"
 "http://www.w3.org/Graphics/SVG/1.1/DTD/svg11.dtd">
<!-- Generated by graphviz version 2.40.1 (0)
 -->
<!-- Title: finite_state_machine Pages: 1 -->
<svg width="576pt" height="96pt"
 viewBox="0.00 0.00 576.00 96.21" xmlns="http://www.w3.org/2000/svg" xmlns:xlink="http://www.w3.org/1999/xlink">
<g id="graph0" class="graph" transform="scale(.0893 .0893) rotate(0) translate(4 1073.7945)">
<title>finite_state_machine</title>
<polygon fill="#ffffff" stroke="transparent" points="-4,4 -4,-1073.7945 6448.5492,-1073.7945 6448.5492,4 -4,4"/>
<!-- up -->
<g id="node1" class="node">
<title>up</title>
<ellipse fill="none" stroke="#000000" cx="1140.7774" cy="-396.7945" rx="27" ry="18"/>
<text text-anchor="middle" x="1140.7774" y="-393.0945" font-family="Times,serif" font-size="14.00" fill="#000000">up</text>
</g>
<!-- up&#45;&gt;up -->
<g id="edge22" class="edge">
<title>up&#45;&gt;up</title>
<path fill="none" stroke="#000000" d="M1123.4693,-410.8363C1116.9963,-421.7071 1122.7657,-432.7945 1140.7774,-432.7945 1153.1605,-432.7945 1159.7571,-427.554 1160.5673,-420.7462"/>
<polygon fill="#000000" stroke="#000000" points="1163.9101,-419.6864 1158.0855,-410.8363 1157.1198,-421.387 1163.9101,-419.6864"/>
<text text-anchor="middle" x="1140.7774" y="-436.5945" font-family="Times,serif" font-size="14.00" fill="#000000">R</text>
</g>
<!-- failed -->
<g id="node7" class="node">
<title>failed</title>
<ellipse fill="none" stroke="#000000" cx="5879.5905" cy="-587.7945" rx="36.2938" ry="18"/>
<text text-anchor="middle" x="5879.5905" y="-584.0945" font-family="Times,serif" font-size="14.00" fill="#000000">failed</text>
</g>
<!-- up&#45;&gt;failed -->
<g id="edge23" class="edge">
<title>up&#45;&gt;failed</title>
<path fill="none" stroke="#ff0000" d="M1143.088,-378.6942C1148.4392,-339.8727 1162.9926,-250.6009 1185.7774,-231.7945 1294.8117,-141.7987 1361.5932,-207.7945 1502.9712,-207.7945 1502.9712,-207.7945 1502.9712,-207.7945 2760.8391,-207.7945 3255.8992,-207.7945 3379.6423,-214.7945 3874.7024,-214.7945 3874.7024,-214.7945 3874.7024,-214.7945 5568.4481,-214.7945 5683.7361,-214.7945 5742.9676,-170.9849 5825.1938,-251.7945 5868.5896,-294.4427 5877.3681,-485.8946 5879.142,-559.1555"/>
<polygon fill="#ff0000" stroke="#ff0000" points="5875.6495,-559.545 5879.3636,-569.4675 5882.6479,-559.3946 5875.6495,-559.545"/>
<text text-anchor="middle" x="3677.0104" y="-217.5945" font-family="Times,serif" font-size="14.00" fill="#000000">R</text>
</g>
<!-- deleting -->
<g id="node16" class="node">
<title>deleting</title>
<ellipse fill="none" stroke="#000000" cx="6133.733" cy="-656.7945" rx="48.9926" ry="18"/>
<text text-anchor="middle" x="6133.733" y="-653.0945" font-family="Times,serif" font-size="14.00" fill="#000000">deleting</text>
</g>
<!-- up&#45;&gt;deleting -->
<g id="edge18" class="edge">
<title>up&#45;&gt;deleting</title>
<path fill="none" stroke="#000000" d="M1141.0778,-414.8331C1142.6715,-500.0882 1151.4072,-859.9555 1185.7774,-894.7945 1285.3186,-995.6935 1361.2353,-927.7945 1502.9712,-927.7945 1502.9712,-927.7945 1502.9712,-927.7945 5879.5905,-927.7945 6012.0736,-927.7945 6095.5675,-753.3394 6123.3985,-684.373"/>
<polygon fill="#000000" stroke="#000000" points="6126.6836,-685.5831 6127.1,-674.9964 6120.1726,-683.0127 6126.6836,-685.5831"/>
<text text-anchor="middle" x="3874.7024" y="-931.5945" font-family="Times,serif" font-size="14.00" fill="#000000">D(delete on up)</text>
</g>
<!-- update_start -->
<g id="node20" class="node">
<title>update_start</title>
<ellipse fill="none" stroke="#000000" cx="1502.9712" cy="-456.7945" rx="70.3881" ry="18"/>
<text text-anchor="middle" x="1502.9712" y="-453.0945" font-family="Times,serif" font-size="14.00" fill="#000000">update_start</text>
</g>
<!-- up&#45;&gt;update_start -->
<g id="edge30" class="edge">
<title>up&#45;&gt;update_start</title>
<path fill="none" stroke="#000000" d="M1167.7596,-395.2441C1217.511,-393.1103 1326.6688,-391.8247 1414.7774,-414.7945 1432.3084,-419.3649 1450.566,-427.4346 1465.8909,-435.2872"/>
<polygon fill="#000000" stroke="#000000" points="1464.5448,-438.5346 1475.0211,-440.1154 1467.8171,-432.3466 1464.5448,-438.5346"/>
<text text-anchor="middle" x="1300.2774" y="-418.5945" font-family="Times,serif" font-size="14.00" fill="#000000">U(update start)</text>
</g>
<!-- update_failed -->
<g id="node2" class="node">
<title>update_failed</title>
<ellipse fill="none" stroke="#000000" cx="5271.2024" cy="-683.7945" rx="73.387" ry="18"/>
<text text-anchor="middle" x="5271.2024" y="-680.0945" font-family="Times,serif" font-size="14.00" fill="#000000">update_failed</text>
</g>
<!-- update_failed&#45;&gt;up -->
<g id="edge53" class="edge">
<title>update_failed&#45;&gt;up</title>
<path fill="none" stroke="#000000" d="M5256.3242,-701.6319C5213.5138,-750.8242 5084.1672,-884.7945 4945.2024,-884.7945 1502.9712,-884.7945 1502.9712,-884.7945 1502.9712,-884.7945 1361.3245,-884.7945 1285.9732,-953.9173 1185.7774,-853.7945 1155.3687,-823.408 1144.2569,-519.8205 1141.5114,-424.9618"/>
<polygon fill="#000000" stroke="#000000" points="1145.0098,-424.8499 1141.2306,-414.952 1138.0125,-425.0462 1145.0098,-424.8499"/>
<text text-anchor="middle" x="3075.3287" y="-888.5945" font-family="Times,serif" font-size="14.00" fill="#000000">R</text>
</g>
<!-- update_failed&#45;&gt;update_failed -->
<g id="edge54" class="edge">
<title>update_failed&#45;&gt;update_failed</title>
<path fill="none" stroke="#ff0000" d="M5242.7259,-700.4586C5236.3977,-710.4195 5245.8899,-719.7945 5271.2024,-719.7945 5287.4182,-719.7945 5297.1414,-715.947 5300.3719,-710.5628"/>
<polygon fill="#ff0000" stroke="#ff0000" points="5303.855,-710.1957 5299.679,-700.4586 5296.8714,-710.6746 5303.855,-710.1957"/>
<text text-anchor="middle" x="5271.2024" y="-723.5945" font-family="Times,serif" font-size="14.00" fill="#000000">R</text>
</g>
<!-- rollback -->
<g id="node5" class="node">
<title>rollback</title>
<ellipse fill="none" stroke="#000000" cx="5568.4481" cy="-633.7945" rx="48.9926" ry="18"/>
<text text-anchor="middle" x="5568.4481" y="-630.0945" font-family="Times,serif" font-size="14.00" fill="#000000">rollback</text>
</g>
<!-- update_failed&#45;&gt;rollback -->
<g id="edge55" class="edge">
<title>update_failed&#45;&gt;rollback</title>
<path fill="none" stroke="#000000" d="M5326.8181,-672.0135C5356.9022,-665.8518 5394.7509,-658.4387 5428.7024,-652.7945 5455.9808,-648.2597 5486.3892,-644.0281 5511.8567,-640.7149"/>
<polygon fill="#000000" stroke="#000000" points="5512.6092,-644.147 5522.0807,-639.3993 5511.7158,-637.2042 5512.6092,-644.147"/>
<text text-anchor="middle" x="5465.2024" y="-656.5945" font-family="Times,serif" font-size="14.00" fill="#000000">S rollback</text>
</g>
<!-- update_failed&#45;&gt;deleting -->
<g id="edge21" class="edge">
<title>update_failed&#45;&gt;deleting</title>
<path fill="none" stroke="#000000" d="M5344.3692,-681.5042C5512.1695,-676.2515 5921.9995,-663.4225 6074.92,-658.6356"/>
<polygon fill="#000000" stroke="#000000" points="6075.1625,-662.1298 6085.048,-658.3185 6074.9434,-655.1332 6075.1625,-662.1298"/>
<text text-anchor="middle" x="5730.1938" y="-675.5945" font-family="Times,serif" font-size="14.00" fill="#000000">D(delete on update_failed)</text>
</g>
<!-- acknowledged -->
<g id="node3" class="node">
<title>acknowledged</title>
<ellipse fill="none" stroke="#000000" cx="77.3431" cy="-200.7945" rx="77.1866" ry="18"/>
<text text-anchor="middle" x="77.3431" y="-197.0945" font-family="Times,serif" font-size="14.00" fill="#000000">acknowledged</text>
</g>
<!-- acknowledged&#45;&gt;acknowledged -->
<g id="edge10" class="edge">
<title>acknowledged&#45;&gt;acknowledged</title>
<path fill="none" stroke="#000000" d="M43.8832,-217.0848C35.8148,-227.1837 46.9681,-236.7945 77.3431,-236.7945 96.8021,-236.7945 108.3725,-232.8502 112.0543,-227.3601"/>
<polygon fill="#000000" stroke="#000000" points="115.4863,-226.5884 110.8031,-217.0848 108.5376,-227.4346 115.4863,-226.5884"/>
<text text-anchor="middle" x="77.3431" y="-240.5945" font-family="Times,serif" font-size="14.00" fill="#000000">SV(revalidate)</text>
</g>
<!-- terminated -->
<g id="node12" class="node">
<title>terminated</title>
<polygon fill="none" stroke="#000000" points="6436.5808,-649.3387 6436.5808,-664.2504 6397.001,-674.7945 6341.0268,-674.7945 6301.4471,-664.2504 6301.4471,-649.3387 6341.0268,-638.7945 6397.001,-638.7945 6436.5808,-649.3387"/>
<polygon fill="none" stroke="#000000" points="6440.5827,-646.2652 6440.5827,-667.3239 6397.5252,-678.7945 6340.5027,-678.7945 6297.4452,-667.3239 6297.4452,-646.2652 6340.5027,-634.7945 6397.5252,-634.7945 6440.5827,-646.2652"/>
<polygon fill="none" stroke="#000000" points="6444.5845,-643.1916 6444.5845,-670.3974 6398.0494,-682.7945 6339.9785,-682.7945 6293.4434,-670.3974 6293.4434,-643.1916 6339.9785,-630.7945 6398.0494,-630.7945 6444.5845,-643.1916"/>
<text text-anchor="middle" x="6369.0139" y="-653.0945" font-family="Times,serif" font-size="14.00" fill="#000000">terminated</text>
</g>
<!-- acknowledged&#45;&gt;terminated -->
<g id="edge12" class="edge">
<title>acknowledged&#45;&gt;terminated</title>
<path fill="none" stroke="#000000" d="M81.2227,-219.0266C108.0662,-342.7926 270.7458,-1054.7945 460.6863,-1054.7945 460.6863,-1054.7945 460.6863,-1054.7945 6133.733,-1054.7945 6206.5132,-1054.7945 6230.4512,-1029.9739 6275.4787,-972.7945 6342.2338,-888.0236 6361.3959,-756.6587 6366.8589,-693.3542"/>
<polygon fill="#000000" stroke="#000000" points="6370.3726,-693.3189 6367.676,-683.073 6363.3946,-692.7643 6370.3726,-693.3189"/>
<text text-anchor="middle" x="3389.8183" y="-1058.5945" font-family="Times,serif" font-size="14.00" fill="#000000">D(delete on ack)</text>
</g>
<!-- designed -->
<g id="node14" class="node">
<title>designed</title>
<ellipse fill="none" stroke="#000000" cx="460.6863" cy="-327.7945" rx="52.7911" ry="18"/>
<text text-anchor="middle" x="460.6863" y="-324.0945" font-family="Times,serif" font-size="14.00" fill="#000000">designed</text>
</g>
<!-- acknowledged&#45;&gt;designed -->
<g id="edge6" class="edge">
<title>acknowledged&#45;&gt;designed</title>
<path fill="none" stroke="#000000" d="M131.0972,-213.823C209.0685,-232.844 346.6757,-266.9213 368.6863,-275.7945 388.9304,-283.9556 410.2276,-295.7617 427.2271,-306.0624"/>
<polygon fill="#000000" stroke="#000000" points="425.8472,-309.3236 436.1952,-311.5974 429.5237,-303.3668 425.8472,-309.3236"/>
<text text-anchor="middle" x="270.6863" y="-279.5945" font-family="Times,serif" font-size="14.00" fill="#000000">AcV(ack to designed(auto))</text>
</g>
<!-- acknowledged&#45;&gt;designed -->
<g id="edge8" class="edge">
<title>acknowledged&#45;&gt;designed</title>
<path fill="none" stroke="#000000" d="M90.5524,-218.8349C107.1434,-239.9813 137.7118,-274.2362 172.6863,-290.7945 244.83,-324.9503 337.9073,-331.0091 398.4233,-330.6611"/>
<polygon fill="#000000" stroke="#000000" points="398.6311,-334.1589 408.5888,-330.5405 398.548,-327.1594 398.6311,-334.1589"/>
<text text-anchor="middle" x="270.6863" y="-333.5945" font-family="Times,serif" font-size="14.00" fill="#000000">SV(ack to designed(api))</text>
</g>
<!-- rejected -->
<g id="node18" class="node">
<title>rejected</title>
<ellipse fill="none" stroke="#000000" cx="460.6863" cy="-124.7945" rx="49.2915" ry="18"/>
<text text-anchor="middle" x="460.6863" y="-121.0945" font-family="Times,serif" font-size="14.00" fill="#000000">rejected</text>
</g>
<!-- acknowledged&#45;&gt;rejected -->
<g id="edge7" class="edge">
<title>acknowledged&#45;&gt;rejected</title>
<path fill="none" stroke="#ff0000" d="M112.4164,-184.7233C130.1372,-177.2418 152.1807,-168.8887 172.6863,-163.7945 257.8078,-142.6481 281.8916,-153.4245 368.6863,-140.7945 380.8439,-139.0254 393.8655,-136.9016 406.1742,-134.7882"/>
<polygon fill="#ff0000" stroke="#ff0000" points="407.0597,-138.1867 416.3112,-133.0233 405.859,-131.2905 407.0597,-138.1867"/>
<text text-anchor="middle" x="270.6863" y="-167.5945" font-family="Times,serif" font-size="14.00" fill="#000000">AcV(ack to designed(auto))</text>
</g>
<!-- acknowledged&#45;&gt;rejected -->
<g id="edge9" class="edge">
<title>acknowledged&#45;&gt;rejected</title>
<path fill="none" stroke="#ff0000" d="M91.9623,-182.8544C108.9935,-163.52 139.1165,-133.8952 172.6863,-121.7945 250.949,-93.5837 349.1289,-103.3086 408.2815,-113.5756"/>
<polygon fill="#ff0000" stroke="#ff0000" points="407.6817,-117.0238 418.1444,-115.3557 408.9251,-110.1351 407.6817,-117.0238"/>
<text text-anchor="middle" x="270.6863" y="-125.5945" font-family="Times,serif" font-size="14.00" fill="#000000">SV(ack to designed(api))</text>
</g>
<!-- acknowledged&#45;&gt;rejected -->
<g id="edge11" class="edge">
<title>acknowledged&#45;&gt;rejected</title>
<path fill="none" stroke="#ff0000" d="M153.3391,-204.3421C213.1824,-204.9447 298.0039,-200.8972 368.6863,-178.7945 390.9639,-171.8282 413.6044,-158.6332 430.8512,-147.0307"/>
<polygon fill="#ff0000" stroke="#ff0000" points="433.1172,-149.719 439.348,-141.15 429.1334,-143.9631 433.1172,-149.719"/>
<text text-anchor="middle" x="270.6863" y="-207.5945" font-family="Times,serif" font-size="14.00" fill="#000000">SV(revalidate)</text>
</g>
<!-- update_designed -->
<g id="node4" class="node">
<title>update_designed</title>
<ellipse fill="none" stroke="#000000" cx="3677.0104" cy="-657.7945" rx="89.8845" ry="18"/>
<text text-anchor="middle" x="3677.0104" y="-654.0945" font-family="Times,serif" font-size="14.00" fill="#000000">update_designed</text>
</g>
<!-- update_designed&#45;&gt;up -->
<g id="edge76" class="edge">
<title>update_designed&#45;&gt;up</title>
<path fill="none" stroke="#000000" d="M3666.836,-675.6956C3650.3047,-702.871 3614.8295,-753.7995 3569.3183,-776.7945 3408.4918,-858.054 2941.0287,-838.7945 2760.8391,-838.7945 1502.9712,-838.7945 1502.9712,-838.7945 1502.9712,-838.7945 1361.5932,-838.7945 1287.3197,-913.1657 1185.7774,-814.7945 1157.7847,-787.676 1145.1773,-514.8294 1141.7684,-425.1747"/>
<polygon fill="#000000" stroke="#000000" points="1145.2573,-424.8072 1141.3894,-414.9436 1138.2621,-425.0664 1145.2573,-424.8072"/>
<text text-anchor="middle" x="2139.6649" y="-842.5945" font-family="Times,serif" font-size="14.00" fill="#000000">S(abort update) clear candidate</text>
</g>
<!-- update_designed&#45;&gt;update_designed -->
<g id="edge61" class="edge">
<title>update_designed&#45;&gt;update_designed</title>
<path fill="none" stroke="#000000" d="M3642.5573,-674.4586C3634.901,-684.4195 3646.3854,-693.7945 3677.0104,-693.7945 3696.6295,-693.7945 3708.3933,-689.947 3712.3018,-684.5628"/>
<polygon fill="#000000" stroke="#000000" points="3715.7785,-684.1349 3711.4635,-674.4586 3708.8024,-684.7138 3715.7785,-684.1349"/>
<text text-anchor="middle" x="3677.0104" y="-697.5945" font-family="Times,serif" font-size="14.00" fill="#000000">R(upd_designed failed)</text>
</g>
<!-- update_inprogress -->
<g id="node6" class="node">
<title>update_inprogress</title>
<ellipse fill="none" stroke="#000000" cx="4945.2024" cy="-668.7945" rx="97.4827" ry="18"/>
<text text-anchor="middle" x="4945.2024" y="-665.0945" font-family="Times,serif" font-size="14.00" fill="#000000">update_inprogress</text>
</g>
<!-- update_designed&#45;&gt;update_inprogress -->
<g id="edge47" class="edge">
<title>update_designed&#45;&gt;update_inprogress</title>
<path fill="none" stroke="#000000" d="M3766.6925,-658.5724C3993.9976,-660.544 4592.0302,-665.7312 4837.6002,-667.8612"/>
<polygon fill="#000000" stroke="#000000" points="4837.5769,-671.361 4847.6069,-667.948 4837.6377,-664.3613 4837.5769,-671.361"/>
<text text-anchor="middle" x="4167.7024" y="-666.5945" font-family="Times,serif" font-size="14.00" fill="#000000">Ac(upd_designed to upd_inprogress(auto)) promote</text>
</g>
<!-- update_designed&#45;&gt;update_inprogress -->
<g id="edge48" class="edge">
<title>update_designed&#45;&gt;update_inprogress</title>
<path fill="none" stroke="#000000" d="M3761.9505,-651.8023C3823.2625,-647.7867 3908.0505,-642.8687 3982.7024,-640.7945 4340.4418,-630.855 4430.2788,-641.7774 4787.7024,-659.7945 4805.3583,-660.6845 4824.1236,-661.6979 4842.3163,-662.7158"/>
<polygon fill="#000000" stroke="#000000" points="4842.1727,-666.2132 4852.3537,-663.281 4842.5664,-659.2242 4842.1727,-666.2132"/>
<text text-anchor="middle" x="4167.7024" y="-644.5945" font-family="Times,serif" font-size="14.00" fill="#000000">S(upd_designed to upd_inprogress(api)) promote</text>
</g>
<!-- update_designed_failed -->
<g id="node19" class="node">
<title>update_designed_failed</title>
<ellipse fill="none" stroke="#000000" cx="4167.7024" cy="-734.7945" rx="120.4791" ry="18"/>
<text text-anchor="middle" x="4167.7024" y="-731.0945" font-family="Times,serif" font-size="14.00" fill="#000000">update_designed_failed</text>
</g>
<!-- update_designed&#45;&gt;update_designed_failed -->
<g id="edge62" class="edge">
<title>update_designed&#45;&gt;update_designed_failed</title>
<path fill="none" stroke="#ff0000" d="M3756.1356,-666.3025C3837.8661,-675.2191 3954.8846,-688.3977 3964.7024,-691.7945 3973.5627,-694.86 3973.9276,-699.4925 3982.7024,-702.7945 4006.4022,-711.7129 4032.7548,-718.1653 4057.9676,-722.8272"/>
<polygon fill="#ff0000" stroke="#ff0000" points="4057.4823,-726.2956 4067.939,-724.5906 4058.7013,-719.4025 4057.4823,-726.2956"/>
<text text-anchor="middle" x="3874.7024" y="-695.5945" font-family="Times,serif" font-size="14.00" fill="#000000">R(upd_designed failed)</text>
</g>
<!-- rollback&#45;&gt;up -->
<g id="edge26" class="edge">
<title>rollback&#45;&gt;up</title>
<path fill="none" stroke="#000000" d="M5527.5352,-623.827C5444.4298,-603.784 5249.7444,-557.8667 5084.7024,-526.7945 4414.848,-400.682 4248.6742,-346.3373 3569.3183,-290.7945 3211.1757,-261.5135 3120.1767,-283.7945 2760.8391,-283.7945 1502.9712,-283.7945 1502.9712,-283.7945 1502.9712,-283.7945 1360.8796,-283.7945 1305.2577,-246.889 1185.7774,-323.7945 1169.1898,-334.4714 1157.718,-353.6518 1150.51,-369.6731"/>
<polygon fill="#000000" stroke="#000000" points="1147.1825,-368.5592 1146.5654,-379.136 1153.6436,-371.2525 1147.1825,-368.5592"/>
<text text-anchor="middle" x="3389.8183" y="-294.5945" font-family="Times,serif" font-size="14.00" fill="#000000">R(rollback complete)</text>
</g>
<!-- rollback&#45;&gt;failed -->
<g id="edge27" class="edge">
<title>rollback&#45;&gt;failed</title>
<path fill="none" stroke="#ff0000" d="M5616.052,-629.6995C5667.8097,-624.8204 5752.8243,-615.5588 5825.1938,-601.7945 5829.3431,-601.0054 5833.6454,-600.0825 5837.9303,-599.0937"/>
<polygon fill="#ff0000" stroke="#ff0000" points="5838.9215,-602.4549 5847.8164,-596.699 5837.2734,-595.6517 5838.9215,-602.4549"/>
<text text-anchor="middle" x="5730.1938" y="-630.5945" font-family="Times,serif" font-size="14.00" fill="#000000">R(rollback complete)</text>
</g>
<!-- update_inprogress&#45;&gt;up -->
<g id="edge51" class="edge">
<title>update_inprogress&#45;&gt;up</title>
<path fill="none" stroke="#000000" d="M4889.9022,-653.9078C4859.9088,-646.5836 4822.0463,-638.5391 4787.7024,-634.7945 4595.5061,-613.8388 4546.0362,-633.5689 4352.7024,-632.7945 3588.7145,-629.7345 3589.4928,-628.9582 3587.3183,-630.7945 3550.8098,-661.6261 3604.5996,-704.5658 3569.3183,-736.7945 3539.7779,-763.7791 3250.204,-761.6418 3210.3183,-764.7945 3010.5332,-780.5862 2961.2474,-800.7945 2760.8391,-800.7945 1502.9712,-800.7945 1502.9712,-800.7945 1502.9712,-800.7945 1300.0223,-800.7945 1182.1408,-514.6526 1149.8861,-423.9966"/>
<polygon fill="#000000" stroke="#000000" points="1153.1406,-422.6999 1146.5385,-414.4137 1146.5323,-425.0085 1153.1406,-422.6999"/>
<text text-anchor="middle" x="2760.8391" y="-804.5945" font-family="Times,serif" font-size="14.00" fill="#000000">R</text>
</g>
<!-- update_inprogress&#45;&gt;update_failed -->
<g id="edge52" class="edge">
<title>update_inprogress&#45;&gt;update_failed</title>
<path fill="none" stroke="#ff0000" d="M5039.933,-673.1533C5087.0348,-675.3206 5143.4196,-677.9149 5188.7224,-679.9994"/>
<polygon fill="#ff0000" stroke="#ff0000" points="5188.6519,-683.4998 5198.8023,-680.4632 5188.9737,-676.5072 5188.6519,-683.4998"/>
<text text-anchor="middle" x="5108.2024" y="-679.5945" font-family="Times,serif" font-size="14.00" fill="#000000">R</text>
</g>
<!-- failed&#45;&gt;up -->
<g id="edge24" class="edge">
<title>failed&#45;&gt;up</title>
<path fill="none" stroke="#000000" d="M5877.62,-569.6775C5871.9466,-520.648 5854.107,-386.8933 5825.1938,-354.7945 5744.3649,-265.0602 5689.2187,-265.7945 5568.4481,-265.7945 3874.7024,-265.7945 3874.7024,-265.7945 3874.7024,-265.7945 3379.5723,-265.7945 3255.9693,-245.7945 2760.8391,-245.7945 1502.9712,-245.7945 1502.9712,-245.7945 1502.9712,-245.7945 1361.559,-245.7945 1298.0778,-184.8525 1185.7774,-270.7945 1169.9647,-282.8958 1155.1489,-335.3006 1147.0868,-368.5981"/>
<polygon fill="#000000" stroke="#000000" points="1143.6023,-368.126 1144.7139,-378.6623 1150.4154,-369.7325 1143.6023,-368.126"/>
<text text-anchor="middle" x="3677.0104" y="-268.5945" font-family="Times,serif" font-size="14.00" fill="#000000">R</text>
</g>
<!-- failed&#45;&gt;failed -->
<g id="edge25" class="edge">
<title>failed&#45;&gt;failed</title>
<path fill="none" stroke="#ff0000" d="M5859.2878,-602.9612C5853.1355,-613.4586 5859.903,-623.7945 5879.5905,-623.7945 5892.8181,-623.7945 5900.2134,-619.1287 5901.7764,-612.883"/>
<polygon fill="#ff0000" stroke="#ff0000" points="5905.1966,-612.1331 5899.8933,-602.9612 5898.3194,-613.4384 5905.1966,-612.1331"/>
<text text-anchor="middle" x="5879.5905" y="-627.5945" font-family="Times,serif" font-size="14.00" fill="#000000">R</text>
</g>
<!-- failed&#45;&gt;deleting -->
<g id="edge20" class="edge">
<title>failed&#45;&gt;deleting</title>
<path fill="none" stroke="#000000" d="M5911.5205,-596.4636C5955.0146,-608.2723 6033.3048,-629.5281 6084.3864,-643.3969"/>
<polygon fill="#000000" stroke="#000000" points="6083.6538,-646.8246 6094.2215,-646.0671 6085.488,-640.0692 6083.6538,-646.8246"/>
<text text-anchor="middle" x="6000.4873" y="-641.5945" font-family="Times,serif" font-size="14.00" fill="#000000">D(delete on failed)</text>
</g>
<!-- update_acknowledged_failed -->
<g id="node8" class="node">
<title>update_acknowledged_failed</title>
<ellipse fill="none" stroke="#000000" cx="2417.752" cy="-590.7945" rx="145.6742" ry="18"/>
<text text-anchor="middle" x="2417.752" y="-587.0945" font-family="Times,serif" font-size="14.00" fill="#000000">update_acknowledged_failed</text>
</g>
<!-- update_acknowledged_failed&#45;&gt;failed -->
<g id="edge79" class="edge">
<title>update_acknowledged_failed&#45;&gt;failed</title>
<path fill="none" stroke="#000000" d="M2438.2643,-572.8452C2467.6958,-548.2097 2524.6325,-504.6109 2581.3391,-483.7945 3042.0363,-314.6777 3186.2534,-346.7945 3677.0104,-346.7945 3677.0104,-346.7945 3677.0104,-346.7945 5568.4481,-346.7945 5707.8131,-346.7945 5822.6171,-499.785 5863.5272,-561.9747"/>
<polygon fill="#000000" stroke="#000000" points="5860.649,-563.9694 5869.0211,-570.4624 5866.5254,-560.1657 5860.649,-563.9694"/>
<text text-anchor="middle" x="4579.2024" y="-350.5945" font-family="Times,serif" font-size="14.00" fill="#000000">S(abort_update_failed) clear candidate</text>
</g>
<!-- update_acknowledged_failed&#45;&gt;update_acknowledged_failed -->
<g id="edge37" class="edge">
<title>update_acknowledged_failed&#45;&gt;update_acknowledged_failed</title>
<path fill="none" stroke="#000000" d="M2392.7649,-608.5763C2388.5187,-618.1095 2396.8477,-626.7945 2417.752,-626.7945 2430.4906,-626.7945 2438.5595,-623.5694 2441.9587,-618.8926"/>
<polygon fill="#000000" stroke="#000000" points="2445.4747,-618.8118 2442.7392,-608.5763 2438.4947,-618.2837 2445.4747,-618.8118"/>
<text text-anchor="middle" x="2417.752" y="-630.5945" font-family="Times,serif" font-size="14.00" fill="#000000">SV(revalidate update)</text>
</g>
<!-- update_acknowledged_failed&#45;&gt;update_acknowledged_failed -->
<g id="edge68" class="edge">
<title>update_acknowledged_failed&#45;&gt;update_acknowledged_failed</title>
<path fill="none" stroke="#ff0000" d="M2376.7017,-608.2148C2353.301,-625.5855 2366.9844,-644.7945 2417.752,-644.7945 2461.777,-644.7945 2477.9142,-630.349 2466.1637,-615.1839"/>
<polygon fill="#ff0000" stroke="#ff0000" points="2468.4705,-612.5481 2458.8024,-608.2148 2463.658,-617.6315 2468.4705,-612.5481"/>
<text text-anchor="middle" x="2417.752" y="-648.5945" font-family="Times,serif" font-size="14.00" fill="#000000">R(upd_ack recover)</text>
</g>
<!-- update_rejected_failed -->
<g id="node10" class="node">
<title>update_rejected_failed</title>
<ellipse fill="none" stroke="#000000" cx="3075.3287" cy="-607.7945" rx="116.9792" ry="18"/>
<text text-anchor="middle" x="3075.3287" y="-604.0945" font-family="Times,serif" font-size="14.00" fill="#000000">update_rejected_failed</text>
</g>
<!-- update_acknowledged_failed&#45;&gt;update_rejected_failed -->
<g id="edge38" class="edge">
<title>update_acknowledged_failed&#45;&gt;update_rejected_failed</title>
<path fill="none" stroke="#ff0000" d="M2466.4314,-607.8843C2498.5948,-618.2501 2541.9319,-630.4732 2581.3391,-635.7945 2739.4596,-657.1461 2781.6171,-652.0825 2940.3391,-635.7945 2961.3119,-633.6423 2983.8339,-629.6561 3004.356,-625.3529"/>
<polygon fill="#ff0000" stroke="#ff0000" points="3005.215,-628.7482 3014.2542,-623.2215 3003.7415,-621.905 3005.215,-628.7482"/>
<text text-anchor="middle" x="2760.8391" y="-653.5945" font-family="Times,serif" font-size="14.00" fill="#000000">SV(revalidate update)</text>
</g>
<!-- update_acknowledged_failed&#45;&gt;update_rejected_failed -->
<g id="edge44" class="edge">
<title>update_acknowledged_failed&#45;&gt;update_rejected_failed</title>
<path fill="none" stroke="#ff0000" d="M2554.7546,-596.8844C2563.7504,-597.2141 2572.6733,-597.5214 2581.3391,-597.7945 2706.0891,-601.7258 2848.6116,-604.4187 2948.404,-606.0109"/>
<polygon fill="#ff0000" stroke="#ff0000" points="2948.4779,-609.5124 2958.532,-606.1711 2948.5886,-602.5133 2948.4779,-609.5124"/>
<text text-anchor="middle" x="2760.8391" y="-608.5945" font-family="Times,serif" font-size="14.00" fill="#000000">AcV(upd_ack_failed to upd_designed_failed(auto))</text>
</g>
<!-- update_acknowledged_failed&#45;&gt;update_rejected_failed -->
<g id="edge46" class="edge">
<title>update_acknowledged_failed&#45;&gt;update_rejected_failed</title>
<path fill="none" stroke="#ff0000" d="M2532.536,-579.7078C2638.6522,-571.4596 2800.5747,-563.951 2940.3391,-578.7945 2961.9455,-581.0892 2985.1751,-585.3947 3006.1696,-589.9993"/>
<polygon fill="#ff0000" stroke="#ff0000" points="3005.4364,-593.4218 3015.9608,-592.2028 3006.9733,-586.5926 3005.4364,-593.4218"/>
<text text-anchor="middle" x="2760.8391" y="-582.5945" font-family="Times,serif" font-size="14.00" fill="#000000">SV(upd_ack_failed to upd_designed_failed(api))</text>
</g>
<!-- update_acknowledged -->
<g id="node11" class="node">
<title>update_acknowledged</title>
<ellipse fill="none" stroke="#000000" cx="3075.3287" cy="-487.7945" rx="114.2798" ry="18"/>
<text text-anchor="middle" x="3075.3287" y="-484.0945" font-family="Times,serif" font-size="14.00" fill="#000000">update_acknowledged</text>
</g>
<!-- update_acknowledged_failed&#45;&gt;update_acknowledged -->
<g id="edge67" class="edge">
<title>update_acknowledged_failed&#45;&gt;update_acknowledged</title>
<path fill="none" stroke="#000000" d="M2452.4957,-573.1883C2482.1985,-557.954 2525.9419,-535.0839 2563.3391,-513.7945 2571.4869,-509.1562 2572.3536,-505.4706 2581.3391,-502.7945 2615.701,-492.561 2815.7772,-489.2962 2950.5257,-488.2628"/>
<polygon fill="#000000" stroke="#000000" points="2950.9461,-491.7599 2960.9201,-488.1864 2950.8946,-484.7601 2950.9461,-491.7599"/>
<text text-anchor="middle" x="2760.8391" y="-506.5945" font-family="Times,serif" font-size="14.00" fill="#000000">R(upd_ack recover)</text>
</g>
<!-- update_acknowledged_failed&#45;&gt;update_designed_failed -->
<g id="edge43" class="edge">
<title>update_acknowledged_failed&#45;&gt;update_designed_failed</title>
<path fill="none" stroke="#000000" d="M2446.306,-608.5886C2477.9774,-627.3057 2531.2365,-655.8097 2581.3391,-668.7945 2613.7596,-677.1968 3751.227,-742.7524 3784.7024,-743.7945 3864.6637,-746.2839 3884.7221,-745.5666 3964.7024,-743.7945 3990.2339,-743.2288 4017.5583,-742.2634 4043.6201,-741.1696"/>
<polygon fill="#000000" stroke="#000000" points="4044.084,-744.653 4053.9248,-740.7278 4043.7841,-737.6594 4044.084,-744.653"/>
<text text-anchor="middle" x="3389.8183" y="-734.5945" font-family="Times,serif" font-size="14.00" fill="#000000">AcV(upd_ack_failed to upd_designed_failed(auto))</text>
</g>
<!-- update_acknowledged_failed&#45;&gt;update_designed_failed -->
<g id="edge45" class="edge">
<title>update_acknowledged_failed&#45;&gt;update_designed_failed</title>
<path fill="none" stroke="#000000" d="M2449.5559,-608.4402C2479.6345,-625.5428 2525.6524,-652.7917 2563.3391,-679.7945 2571.8041,-685.8598 2571.7113,-690.8259 2581.3391,-694.7945 2613.7687,-708.162 3175.2866,-748.0213 3210.3183,-749.7945 3465.2985,-762.701 3529.402,-756.0167 3784.7024,-757.7945 3864.7005,-758.3516 3884.8297,-762.3049 3964.7024,-757.7945 3998.8004,-755.869 4035.967,-752.1381 4069.0698,-748.2323"/>
<polygon fill="#000000" stroke="#000000" points="4069.6928,-751.6828 4079.2047,-747.0164 4068.8589,-744.7326 4069.6928,-751.6828"/>
<text text-anchor="middle" x="3389.8183" y="-761.5945" font-family="Times,serif" font-size="14.00" fill="#000000">SV(upd_ack_failed to upd_designed_failed(api))</text>
</g>
<!-- creating -->
<g id="node9" class="node">
<title>creating</title>
<ellipse fill="none" stroke="#000000" cx="904.7318" cy="-365.7945" rx="50.0912" ry="18"/>
<text text-anchor="middle" x="904.7318" y="-362.0945" font-family="Times,serif" font-size="14.00" fill="#000000">creating</text>
</g>
<!-- creating&#45;&gt;up -->
<g id="edge16" class="edge">
<title>creating&#45;&gt;up</title>
<path fill="none" stroke="#000000" d="M951.9319,-371.9933C996.735,-377.8774 1063.1458,-386.5991 1104.103,-391.9781"/>
<polygon fill="#000000" stroke="#000000" points="1103.8185,-395.4707 1114.1892,-393.3027 1104.7301,-388.5303 1103.8185,-395.4707"/>
<text text-anchor="middle" x="1034.2774" y="-394.5945" font-family="Times,serif" font-size="14.00" fill="#000000">R(creating to up)</text>
</g>
<!-- creating&#45;&gt;failed -->
<g id="edge17" class="edge">
<title>creating&#45;&gt;failed</title>
<path fill="none" stroke="#ff0000" d="M907.7222,-384.0789C924.6699,-484.634 1012.4687,-965.7945 1140.7774,-965.7945 1140.7774,-965.7945 1140.7774,-965.7945 5108.2024,-965.7945 5437.9783,-965.7945 5600.9969,-1016.6372 5825.1938,-774.7945 5846.7322,-751.5609 5865.8869,-662.133 5874.6058,-615.8751"/>
<polygon fill="#ff0000" stroke="#ff0000" points="5878.0731,-616.3726 5876.4495,-605.9029 5871.1897,-615.0999 5878.0731,-616.3726"/>
<text text-anchor="middle" x="3389.8183" y="-969.5945" font-family="Times,serif" font-size="14.00" fill="#000000">R(creating to up)</text>
</g>
<!-- creating&#45;&gt;deleting -->
<g id="edge19" class="edge">
<title>creating&#45;&gt;deleting</title>
<path fill="none" stroke="#000000" d="M914.2801,-347.8684C942.0558,-298.4314 1028.0483,-163.7945 1140.7774,-163.7945 1140.7774,-163.7945 1140.7774,-163.7945 5879.5905,-163.7945 6090.2406,-163.7945 6126.4573,-523.7892 6132.5366,-628.5299"/>
<polygon fill="#000000" stroke="#000000" points="6129.0492,-628.8636 6133.0751,-638.6637 6136.0394,-628.492 6129.0492,-628.8636"/>
<text text-anchor="middle" x="3677.0104" y="-167.5945" font-family="Times,serif" font-size="14.00" fill="#000000">D(delete on creating)</text>
</g>
<!-- update_rejected_failed&#45;&gt;failed -->
<g id="edge78" class="edge">
<title>update_rejected_failed&#45;&gt;failed</title>
<path fill="none" stroke="#000000" d="M3102.1251,-625.4748C3128.4192,-641.6854 3170.289,-664.5327 3210.3183,-673.7945 3288.0428,-691.7781 3506.9549,-723.5469 3569.3183,-673.7945 3597.4686,-651.3368 3559.803,-618.0259 3587.3183,-594.7945 3608.8199,-576.6406 4388.6853,-548.7945 4579.2024,-548.7945 4579.2024,-548.7945 4579.2024,-548.7945 5568.4481,-548.7945 5664.4271,-548.7945 5775.7759,-567.2912 5835.8047,-578.8081"/>
<polygon fill="#000000" stroke="#000000" points="5835.2104,-582.258 5845.6948,-580.7319 5836.5471,-575.3868 5835.2104,-582.258"/>
<text text-anchor="middle" x="4945.2024" y="-552.5945" font-family="Times,serif" font-size="14.00" fill="#000000">S(abort_update_failed) clear candidate</text>
</g>
<!-- update_rejected_failed&#45;&gt;update_rejected_failed -->
<g id="edge72" class="edge">
<title>update_rejected_failed&#45;&gt;update_rejected_failed</title>
<path fill="none" stroke="#ff0000" d="M3020.8557,-623.8977C3007.1886,-634.0647 3025.3463,-643.7945 3075.3287,-643.7945 3108.9107,-643.7945 3128.1264,-639.4023 3132.9759,-633.4363"/>
<polygon fill="#ff0000" stroke="#ff0000" points="3136.2803,-632.281 3129.8018,-623.8977 3129.6384,-634.4913 3136.2803,-632.281"/>
<text text-anchor="middle" x="3075.3287" y="-647.5945" font-family="Times,serif" font-size="14.00" fill="#000000">R(upd_reject recover)</text>
</g>
<!-- update_rejected -->
<g id="node13" class="node">
<title>update_rejected</title>
<ellipse fill="none" stroke="#000000" cx="3677.0104" cy="-448.7945" rx="86.3847" ry="18"/>
<text text-anchor="middle" x="3677.0104" y="-445.0945" font-family="Times,serif" font-size="14.00" fill="#000000">update_rejected</text>
</g>
<!-- update_rejected_failed&#45;&gt;update_rejected -->
<g id="edge71" class="edge">
<title>update_rejected_failed&#45;&gt;update_rejected</title>
<path fill="none" stroke="#000000" d="M3165.3207,-596.2123C3175.0785,-592.3661 3184.3434,-587.3415 3192.3183,-580.7945 3207.3861,-568.4248 3194.2791,-551.8756 3210.3183,-540.7945 3276.0782,-495.3629 3493.418,-543.8452 3569.3183,-518.7945 3598.9104,-509.0277 3628.2858,-489.0648 3648.863,-472.9479"/>
<polygon fill="#000000" stroke="#000000" points="3651.2366,-475.5309 3656.8448,-466.542 3646.8551,-470.0716 3651.2366,-475.5309"/>
<text text-anchor="middle" x="3389.8183" y="-544.5945" font-family="Times,serif" font-size="14.00" fill="#000000">R(upd_reject recover)</text>
</g>
<!-- update_acknowledged&#45;&gt;up -->
<g id="edge75" class="edge">
<title>update_acknowledged&#45;&gt;up</title>
<path fill="none" stroke="#000000" d="M2992.6497,-475.2439C2891.626,-460.4591 2715.3654,-436.4394 2563.3391,-424.7945 2054.1219,-385.7895 1925.427,-397.5732 1414.7774,-389.7945 1313.0114,-388.2443 1287.2524,-381.9492 1185.7774,-389.7945 1182.8952,-390.0174 1179.9184,-390.3193 1176.9327,-390.6733"/>
<polygon fill="#000000" stroke="#000000" points="1176.3115,-387.2254 1166.8725,-392.0375 1177.2522,-394.1619 1176.3115,-387.2254"/>
<text text-anchor="middle" x="1892.6649" y="-399.5945" font-family="Times,serif" font-size="14.00" fill="#000000">S(abort update) clear candidate</text>
</g>
<!-- update_acknowledged&#45;&gt;update_designed -->
<g id="edge39" class="edge">
<title>update_acknowledged&#45;&gt;update_designed</title>
<path fill="none" stroke="#000000" d="M3099.1117,-505.748C3123.0935,-524.0712 3160.9507,-553.6009 3192.3183,-580.7945 3200.6328,-588.0026 3200.2282,-593.4041 3210.3183,-597.7945 3283.6212,-629.6897 3490.9304,-605.1118 3569.3183,-620.7945 3589.0366,-624.7395 3610.0874,-631.3909 3628.2988,-637.9753"/>
<polygon fill="#000000" stroke="#000000" points="3627.2253,-641.3101 3637.8184,-641.5028 3629.6576,-634.7462 3627.2253,-641.3101"/>
<text text-anchor="middle" x="3389.8183" y="-624.5945" font-family="Times,serif" font-size="14.00" fill="#000000">AcV(upd_ack to upd_designed(auto))</text>
</g>
<!-- update_acknowledged&#45;&gt;update_designed -->
<g id="edge41" class="edge">
<title>update_acknowledged&#45;&gt;update_designed</title>
<path fill="none" stroke="#000000" d="M3106.1552,-505.178C3132.5344,-521.5263 3169.7251,-548.3109 3192.3183,-580.7945 3207.0045,-601.9097 3189.8555,-620.2124 3210.3183,-635.7945 3266.8316,-678.8282 3464.4641,-673.2756 3583.6667,-665.4754"/>
<polygon fill="#000000" stroke="#000000" points="3584.1413,-668.9515 3593.8841,-664.7888 3583.6719,-661.9672 3584.1413,-668.9515"/>
<text text-anchor="middle" x="3389.8183" y="-674.5945" font-family="Times,serif" font-size="14.00" fill="#000000">SV(upd_ack to upd_designed(api))</text>
</g>
<!-- update_acknowledged&#45;&gt;update_acknowledged_failed -->
<g id="edge60" class="edge">
<title>update_acknowledged&#45;&gt;update_acknowledged_failed</title>
<path fill="none" stroke="#ff0000" d="M3020.9205,-503.6913C2996.4818,-510.2618 2967.1643,-517.3644 2940.3391,-521.7945 2782.4031,-547.8775 2739.3645,-525.2586 2581.3391,-550.7945 2549.4434,-555.9487 2514.6018,-564.1066 2485.3011,-571.7146"/>
<polygon fill="#ff0000" stroke="#ff0000" points="2484.3701,-568.3404 2475.589,-574.2685 2486.1503,-575.1102 2484.3701,-568.3404"/>
<text text-anchor="middle" x="2760.8391" y="-554.5945" font-family="Times,serif" font-size="14.00" fill="#000000">R(upd_ack failed)</text>
</g>
<!-- update_acknowledged&#45;&gt;update_acknowledged -->
<g id="edge35" class="edge">
<title>update_acknowledged&#45;&gt;update_acknowledged</title>
<path fill="none" stroke="#000000" d="M3047.1058,-505.5763C3042.3098,-515.1095 3051.7174,-523.7945 3075.3287,-523.7945 3089.7169,-523.7945 3098.8307,-520.5694 3102.6701,-515.8926"/>
<polygon fill="#000000" stroke="#000000" points="3106.1874,-515.838 3103.5516,-505.5763 3099.2128,-515.2419 3106.1874,-515.838"/>
<text text-anchor="middle" x="3075.3287" y="-527.5945" font-family="Times,serif" font-size="14.00" fill="#000000">SV(revalidate update)</text>
</g>
<!-- update_acknowledged&#45;&gt;update_acknowledged -->
<g id="edge59" class="edge">
<title>update_acknowledged&#45;&gt;update_acknowledged</title>
<path fill="none" stroke="#000000" d="M3030.2669,-504.3803C3002.0464,-521.9642 3017.067,-541.7945 3075.3287,-541.7945 3126.7629,-541.7945 3144.4968,-526.3396 3128.5303,-510.6192"/>
<polygon fill="#000000" stroke="#000000" points="3130.4565,-507.6857 3120.3905,-504.3803 3126.1982,-513.2415 3130.4565,-507.6857"/>
<text text-anchor="middle" x="3075.3287" y="-545.5945" font-family="Times,serif" font-size="14.00" fill="#000000">R(upd_ack failed)</text>
</g>
<!-- update_acknowledged&#45;&gt;update_rejected -->
<g id="edge36" class="edge">
<title>update_acknowledged&#45;&gt;update_rejected</title>
<path fill="none" stroke="#ff0000" d="M3156.5564,-475.0614C3174.241,-472.6533 3192.878,-470.3918 3210.3183,-468.7945 3337.9125,-457.1087 3485.7716,-452.2292 3580.2831,-450.2058"/>
<polygon fill="#ff0000" stroke="#ff0000" points="3580.4731,-453.7027 3590.3983,-449.9958 3580.3278,-446.7042 3580.4731,-453.7027"/>
<text text-anchor="middle" x="3389.8183" y="-472.5945" font-family="Times,serif" font-size="14.00" fill="#000000">SV(revalidate update)</text>
</g>
<!-- update_acknowledged&#45;&gt;update_rejected -->
<g id="edge40" class="edge">
<title>update_acknowledged&#45;&gt;update_rejected</title>
<path fill="none" stroke="#ff0000" d="M3140.4288,-472.9473C3158.0658,-467.2807 3176.6092,-459.7145 3192.3183,-449.7945 3202.1537,-443.5837 3199.6327,-435.3908 3210.3183,-430.7945 3283.6042,-399.2719 3489.8139,-424.196 3569.3183,-430.7945 3580.4957,-431.7222 3592.2591,-433.1826 3603.7406,-434.8799"/>
<polygon fill="#ff0000" stroke="#ff0000" points="3603.3186,-438.3562 3613.736,-436.425 3604.3881,-431.4383 3603.3186,-438.3562"/>
<text text-anchor="middle" x="3389.8183" y="-434.5945" font-family="Times,serif" font-size="14.00" fill="#000000">AcV(upd_ack to upd_designed(auto))</text>
</g>
<!-- update_acknowledged&#45;&gt;update_rejected -->
<g id="edge42" class="edge">
<title>update_acknowledged&#45;&gt;update_rejected</title>
<path fill="none" stroke="#ff0000" d="M3177.3249,-495.9883C3277.7506,-501.9437 3435.1426,-505.6081 3569.3183,-483.7945 3588.974,-480.599 3609.9357,-474.4525 3628.0924,-468.1907"/>
<polygon fill="#ff0000" stroke="#ff0000" points="3629.3338,-471.4641 3637.5863,-464.8198 3626.9916,-464.8675 3629.3338,-471.4641"/>
<text text-anchor="middle" x="3389.8183" y="-503.5945" font-family="Times,serif" font-size="14.00" fill="#000000">SV(upd_ack to upd_designed(api))</text>
</g>
<!-- update_rejected&#45;&gt;up -->
<g id="edge74" class="edge">
<title>update_rejected&#45;&gt;up</title>
<path fill="none" stroke="#000000" d="M3661.6108,-430.8532C3642.3989,-409.8797 3607.4067,-376.0936 3569.3183,-360.7945 3364.9541,-278.7072 3295.5628,-321.7945 3075.3287,-321.7945 1502.9712,-321.7945 1502.9712,-321.7945 1502.9712,-321.7945 1379.8442,-321.7945 1237.9725,-363.8688 1174.5084,-384.9907"/>
<polygon fill="#000000" stroke="#000000" points="1173.3697,-381.681 1165.0109,-388.1911 1175.605,-388.3145 1173.3697,-381.681"/>
<text text-anchor="middle" x="2139.6649" y="-325.5945" font-family="Times,serif" font-size="14.00" fill="#000000">S(abort update) clear candidate</text>
</g>
<!-- update_rejected&#45;&gt;update_rejected_failed -->
<g id="edge64" class="edge">
<title>update_rejected&#45;&gt;update_rejected_failed</title>
<path fill="none" stroke="#ff0000" d="M3665.775,-466.9816C3648.6163,-492.8966 3613.2033,-539.5483 3569.3183,-559.7945 3496.7296,-593.2832 3289.6503,-572.9427 3210.3183,-582.7945 3192.2574,-585.0374 3172.9608,-588.1665 3154.7726,-591.4537"/>
<polygon fill="#ff0000" stroke="#ff0000" points="3153.9972,-588.0375 3144.7969,-593.2915 3155.2656,-594.9217 3153.9972,-588.0375"/>
<text text-anchor="middle" x="3389.8183" y="-586.5945" font-family="Times,serif" font-size="14.00" fill="#000000">R(upd_reject failed)</text>
</g>
<!-- update_rejected&#45;&gt;update_rejected -->
<g id="edge63" class="edge">
<title>update_rejected&#45;&gt;update_rejected</title>
<path fill="none" stroke="#000000" d="M3642.5573,-465.4586C3634.901,-475.4195 3646.3854,-484.7945 3677.0104,-484.7945 3696.6295,-484.7945 3708.3933,-480.947 3712.3018,-475.5628"/>
<polygon fill="#000000" stroke="#000000" points="3715.7785,-475.1349 3711.4635,-465.4586 3708.8024,-475.7138 3715.7785,-475.1349"/>
<text text-anchor="middle" x="3677.0104" y="-488.5945" font-family="Times,serif" font-size="14.00" fill="#000000">R(upd_reject failed)</text>
</g>
<!-- update_rejected&#45;&gt;update_start -->
<g id="edge56" class="edge">
<title>update_rejected&#45;&gt;update_start</title>
<path fill="none" stroke="#000000" d="M3640.461,-432.4129C3619.9939,-424.1358 3593.7456,-414.9778 3569.3183,-410.7945 3412.0523,-383.862 3369.8594,-408.6457 3210.3183,-410.7945 2582.9766,-419.244 1826.3266,-445.1496 1582.6629,-453.8842"/>
<polygon fill="#000000" stroke="#000000" points="1582.3506,-450.393 1572.4827,-454.2498 1582.6019,-457.3885 1582.3506,-450.393"/>
<text text-anchor="middle" x="2417.752" y="-434.5945" font-family="Times,serif" font-size="14.00" fill="#000000">U(reject)</text>
</g>
<!-- designed&#45;&gt;creating -->
<g id="edge13" class="edge">
<title>designed&#45;&gt;creating</title>
<path fill="none" stroke="#000000" d="M509.1186,-320.4646C581.6542,-311.1435 722.2163,-299.5232 836.6863,-328.7945 849.3069,-332.0218 862.12,-338.1049 873.1725,-344.4204"/>
<polygon fill="#000000" stroke="#000000" points="871.625,-347.5737 881.9997,-349.7224 875.2294,-341.573 871.625,-347.5737"/>
<text text-anchor="middle" x="694.6863" y="-332.5945" font-family="Times,serif" font-size="14.00" fill="#000000">Ac(designed to creating(auto)) promote</text>
</g>
<!-- designed&#45;&gt;creating -->
<g id="edge14" class="edge">
<title>designed&#45;&gt;creating</title>
<path fill="none" stroke="#000000" d="M506.4014,-336.7645C521.1276,-339.3801 537.5517,-342.011 552.6863,-343.7945 654.6431,-355.8093 774.0367,-361.5226 844.3065,-364.0352"/>
<polygon fill="#000000" stroke="#000000" points="844.6155,-367.5479 854.731,-364.3972 844.8585,-360.5521 844.6155,-367.5479"/>
<text text-anchor="middle" x="694.6863" y="-366.5945" font-family="Times,serif" font-size="14.00" fill="#000000">S(designed to creating(api)) promote</text>
</g>
<!-- designed&#45;&gt;terminated -->
<g id="edge15" class="edge">
<title>designed&#45;&gt;terminated</title>
<path fill="none" stroke="#000000" d="M463.2065,-346.0899C479.3027,-454.8651 577.6843,-1011.7945 904.7318,-1011.7945 904.7318,-1011.7945 904.7318,-1011.7945 6133.733,-1011.7945 6285.5809,-1011.7945 6345.2147,-783.3311 6362.8636,-692.9607"/>
<polygon fill="#000000" stroke="#000000" points="6366.3473,-693.3746 6364.7656,-682.8985 6359.4691,-692.0744 6366.3473,-693.3746"/>
<text text-anchor="middle" x="3677.0104" y="-1015.5945" font-family="Times,serif" font-size="14.00" fill="#000000">D(delete on designed)</text>
</g>
<!-- update_start_failed -->
<g id="node15" class="node">
<title>update_start_failed</title>
<ellipse fill="none" stroke="#000000" cx="1892.6649" cy="-590.7945" rx="100.9827" ry="18"/>
<text text-anchor="middle" x="1892.6649" y="-587.0945" font-family="Times,serif" font-size="14.00" fill="#000000">update_start_failed</text>
</g>
<!-- update_start_failed&#45;&gt;failed -->
<g id="edge77" class="edge">
<title>update_start_failed&#45;&gt;failed</title>
<path fill="none" stroke="#000000" d="M1917.4114,-608.5243C1943.204,-626.2722 1985.3447,-653.2543 2025.1649,-669.7945 2129.7905,-713.2531 2160.3059,-714.8304 2272.1649,-732.7945 2566.0682,-779.9941 2643.5067,-756.4897 2940.3391,-778.7945 3267.9092,-803.4091 3348.5168,-838.7945 3677.0104,-838.7945 3677.0104,-838.7945 3677.0104,-838.7945 5568.4481,-838.7945 5700.1585,-838.7945 5733.8006,-785.636 5825.1938,-690.7945 5846.1239,-669.0747 5861.1306,-637.6991 5870.0112,-615.2927"/>
<polygon fill="#000000" stroke="#000000" points="5873.3776,-616.287 5873.6597,-605.6959 5866.8345,-613.7994 5873.3776,-616.287"/>
<text text-anchor="middle" x="4167.7024" y="-842.5945" font-family="Times,serif" font-size="14.00" fill="#000000">S(abort_update_failed) clear candidate</text>
</g>
<!-- update_start_failed&#45;&gt;update_acknowledged_failed -->
<g id="edge33" class="edge">
<title>update_start_failed&#45;&gt;update_acknowledged_failed</title>
<path fill="none" stroke="#000000" d="M1993.5962,-590.7945C2069.5338,-590.7945 2174.9936,-590.7945 2261.7567,-590.7945"/>
<polygon fill="#000000" stroke="#000000" points="2261.9717,-594.2946 2271.9716,-590.7945 2261.9716,-587.2946 2261.9717,-594.2946"/>
<text text-anchor="middle" x="2139.6649" y="-594.5945" font-family="Times,serif" font-size="14.00" fill="#000000">AV(update validation failed)</text>
</g>
<!-- update_start_failed&#45;&gt;update_rejected_failed -->
<g id="edge34" class="edge">
<title>update_start_failed&#45;&gt;update_rejected_failed</title>
<path fill="none" stroke="#ff0000" d="M1941.0954,-606.6474C2012.5701,-629.1261 2150.9425,-669.1577 2272.1649,-683.7945 2567.0642,-719.4016 2651.2626,-737.1188 2940.3391,-668.7945 2974.4811,-660.7249 3010.5674,-643.9342 3036.8309,-630.0083"/>
<polygon fill="#ff0000" stroke="#ff0000" points="3038.5574,-633.0538 3045.6918,-625.221 3035.23,-626.8951 3038.5574,-633.0538"/>
<text text-anchor="middle" x="2417.752" y="-717.5945" font-family="Times,serif" font-size="14.00" fill="#000000">AV(update validation failed)</text>
</g>
<!-- update_start_failed&#45;&gt;update_start_failed -->
<g id="edge66" class="edge">
<title>update_start_failed&#45;&gt;update_start_failed</title>
<path fill="none" stroke="#ff0000" d="M1854.3897,-607.8318C1846.5784,-617.6524 1859.3368,-626.7945 1892.6649,-626.7945 1913.495,-626.7945 1926.2901,-623.2234 1931.0501,-618.1474"/>
<polygon fill="#ff0000" stroke="#ff0000" points="1934.5466,-617.794 1930.9402,-607.8318 1927.547,-617.8686 1934.5466,-617.794"/>
<text text-anchor="middle" x="1892.6649" y="-630.5945" font-family="Times,serif" font-size="14.00" fill="#000000">R(update start recover)</text>
</g>
<!-- update_start_failed&#45;&gt;update_start -->
<g id="edge65" class="edge">
<title>update_start_failed&#45;&gt;update_start</title>
<path fill="none" stroke="#000000" d="M1852.6637,-574.1964C1826.6761,-563.9414 1791.8585,-551.1833 1760.1649,-542.7945 1686.493,-523.2947 1662.1653,-541.4848 1591.1649,-513.7945 1570.0479,-505.5588 1548.6405,-491.8784 1532.2055,-479.9843"/>
<polygon fill="#000000" stroke="#000000" points="1534.2089,-477.1126 1524.0922,-473.9656 1530.0383,-482.7345 1534.2089,-477.1126"/>
<text text-anchor="middle" x="1675.6649" y="-546.5945" font-family="Times,serif" font-size="14.00" fill="#000000">R(update start recover)</text>
</g>
<!-- deleting&#45;&gt;terminated -->
<g id="edge28" class="edge">
<title>deleting&#45;&gt;terminated</title>
<path fill="none" stroke="#000000" d="M6182.4834,-656.7945C6211.5149,-656.7945 6249.189,-656.7945 6283.0719,-656.7945"/>
<polygon fill="#000000" stroke="#000000" points="6283.4519,-660.2946 6293.4519,-656.7945 6283.4518,-653.2946 6283.4519,-660.2946"/>
<text text-anchor="middle" x="6237.9787" y="-660.5945" font-family="Times,serif" font-size="14.00" fill="#000000">R(deleted)</text>
</g>
<!-- deleting&#45;&gt;deleting -->
<g id="edge29" class="edge">
<title>deleting&#45;&gt;deleting</title>
<path fill="none" stroke="#ff0000" d="M6115.3042,-673.8318C6111.5432,-683.6524 6117.6861,-692.7945 6133.733,-692.7945 6143.7623,-692.7945 6149.9229,-689.2234 6152.2147,-684.1474"/>
<polygon fill="#ff0000" stroke="#ff0000" points="6155.7131,-683.8137 6152.1618,-673.8318 6148.7132,-683.8497 6155.7131,-683.8137"/>
<text text-anchor="middle" x="6133.733" y="-696.5945" font-family="Times,serif" font-size="14.00" fill="#000000">R(deleted)</text>
</g>
<!-- start -->
<g id="node17" class="node">
<title>start</title>
<ellipse fill="none" stroke="#000000" cx="904.7318" cy="-57.7945" rx="33.2788" ry="33.2788"/>
<ellipse fill="none" stroke="#000000" cx="904.7318" cy="-57.7945" rx="37.2947" ry="37.2947"/>
<text text-anchor="middle" x="904.7318" y="-54.0945" font-family="Times,serif" font-size="14.00" fill="#000000">start</text>
</g>
<!-- start&#45;&gt;acknowledged -->
<g id="edge1" class="edge">
<title>start&#45;&gt;acknowledged</title>
<path fill="none" stroke="#000000" d="M869.4886,-45.3586C859.0625,-42.2485 847.5332,-39.3556 836.6863,-37.7945 543.3141,4.4266 434.4882,39.1646 172.6863,-99.7945 139.6353,-117.3373 111.621,-150.7227 94.6811,-174.2988"/>
<polygon fill="#000000" stroke="#000000" points="91.5997,-172.5982 88.7435,-182.8008 97.3387,-176.6062 91.5997,-172.5982"/>
<text text-anchor="middle" x="460.6863" y="-18.5945" font-family="Times,serif" font-size="14.00" fill="#000000">AV(initial validation)</text>
</g>
<!-- start&#45;&gt;terminated -->
<g id="edge3" class="edge">
<title>start&#45;&gt;terminated</title>
<path fill="none" stroke="#000000" d="M941.922,-59.834C988.4182,-62.2042 1070.4561,-65.7945 1140.7774,-65.7945 1140.7774,-65.7945 1140.7774,-65.7945 6133.733,-65.7945 6198.4158,-65.7945 6231.196,-51.6467 6275.4787,-98.7945 6346.9759,-174.9179 6364.2319,-509.5686 6368.0263,-620.7461"/>
<polygon fill="#000000" stroke="#000000" points="6364.5297,-620.9104 6368.3528,-630.7914 6371.526,-620.6829 6364.5297,-620.9104"/>
<text text-anchor="middle" x="3874.7024" y="-69.5945" font-family="Times,serif" font-size="14.00" fill="#000000">D(delete while starting)</text>
</g>
<!-- start&#45;&gt;rejected -->
<g id="edge2" class="edge">
<title>start&#45;&gt;rejected</title>
<path fill="none" stroke="#ff0000" d="M868.1018,-50.5368C802.8054,-39.1681 662.818,-21.9421 552.6863,-57.7945 526.6174,-66.281 501.7812,-85.2499 484.4995,-100.8455"/>
<polygon fill="#ff0000" stroke="#ff0000" points="482.0463,-98.3474 477.1135,-107.7239 486.8169,-103.47 482.0463,-98.3474"/>
<text text-anchor="middle" x="694.6863" y="-61.5945" font-family="Times,serif" font-size="14.00" fill="#000000">AV(initial validation)</text>
</g>
<!-- rejected&#45;&gt;terminated -->
<g id="edge4" class="edge">
<title>rejected&#45;&gt;terminated</title>
<path fill="none" stroke="#000000" d="M510.0537,-123.8227C659.579,-120.9659 1120.6842,-112.7945 1502.9712,-112.7945 1502.9712,-112.7945 1502.9712,-112.7945 6133.733,-112.7945 6244.7165,-112.7945 6335.7191,-499.0469 6361.613,-620.6172"/>
<polygon fill="#000000" stroke="#000000" points="6358.2209,-621.4943 6363.71,-630.5563 6365.0701,-620.0491 6358.2209,-621.4943"/>
<text text-anchor="middle" x="3677.0104" y="-116.5945" font-family="Times,serif" font-size="14.00" fill="#000000">D(delete on reject)</text>
</g>
<!-- rejected&#45;&gt;start -->
<g id="edge5" class="edge">
<title>rejected&#45;&gt;start</title>
<path fill="none" stroke="#000000" d="M495.5936,-111.7553C512.5872,-105.9349 533.4565,-99.5543 552.6863,-95.7945 676.9685,-71.4949 711.4519,-91.5797 836.6863,-72.7945 843.8418,-71.7212 851.3682,-70.3306 858.7015,-68.8295"/>
<polygon fill="#000000" stroke="#000000" points="859.4789,-72.2425 868.5289,-66.7337 858.0188,-65.3965 859.4789,-72.2425"/>
<text text-anchor="middle" x="694.6863" y="-99.5945" font-family="Times,serif" font-size="14.00" fill="#000000">U(update on reject)</text>
</g>
<!-- update_designed_failed&#45;&gt;update_designed -->
<g id="edge69" class="edge">
<title>update_designed_failed&#45;&gt;update_designed</title>
<path fill="none" stroke="#000000" d="M4050.4747,-730.7514C3956.7272,-726.6768 3833.2317,-719.1856 3784.7024,-706.7945 3760.9922,-700.7405 3736.0276,-689.7096 3716.1109,-679.6449"/>
<polygon fill="#000000" stroke="#000000" points="3717.5432,-676.4453 3707.0531,-674.9594 3714.3269,-682.6627 3717.5432,-676.4453"/>
<text text-anchor="middle" x="3874.7024" y="-728.5945" font-family="Times,serif" font-size="14.00" fill="#000000">R(upd_designed recover)</text>
</g>
<!-- update_designed_failed&#45;&gt;update_inprogress -->
<g id="edge49" class="edge">
<title>update_designed_failed&#45;&gt;update_inprogress</title>
<path fill="none" stroke="#000000" d="M4260.4964,-723.3403C4290.3057,-718.445 4323.2285,-711.7426 4352.7024,-702.7945 4361.0794,-700.2513 4362.1819,-696.8051 4370.7024,-694.7945 4414.7246,-684.4069 4684.2835,-675.6976 4838.0261,-671.4954"/>
<polygon fill="#000000" stroke="#000000" points="4838.5348,-674.983 4848.4361,-671.2129 4838.3448,-667.9856 4838.5348,-674.983"/>
<text text-anchor="middle" x="4579.2024" y="-698.5945" font-family="Times,serif" font-size="14.00" fill="#000000">Ac(upd_designed_failed to upd_inprogress(auto)) promote</text>
</g>
<!-- update_designed_failed&#45;&gt;update_inprogress -->
<g id="edge50" class="edge">
<title>update_designed_failed&#45;&gt;update_inprogress</title>
<path fill="none" stroke="#000000" d="M4287.6118,-733.012C4440.0687,-730.2141 4694.6649,-723.6163 4787.7024,-709.7945 4820.8474,-704.8705 4857.0837,-695.7097 4886.434,-687.2944"/>
<polygon fill="#000000" stroke="#000000" points="4887.487,-690.6332 4896.1092,-684.4763 4885.5293,-683.9125 4887.487,-690.6332"/>
<text text-anchor="middle" x="4579.2024" y="-734.5945" font-family="Times,serif" font-size="14.00" fill="#000000">S(upd_designed_failed to upd_inprogress(api)) promote</text>
</g>
<!-- update_designed_failed&#45;&gt;failed -->
<g id="edge80" class="edge">
<title>update_designed_failed&#45;&gt;failed</title>
<path fill="none" stroke="#000000" d="M4275.1005,-742.9585C4305.9469,-744.9543 4339.6409,-746.801 4370.7024,-747.7945 4555.941,-753.7197 4603.0646,-763.8361 4787.7024,-747.7945 4921.2074,-736.1954 4970.4792,-765.8743 5084.7024,-695.7945 5096.0672,-688.8218 5094.0521,-681.9409 5102.7024,-671.7945 5114.7337,-657.6825 5114.9731,-649.7965 5131.7024,-641.7945 5287.8985,-567.0827 5346.9984,-619.1386 5519.7024,-606.7945 5632.1917,-598.7543 5764.6878,-592.6171 5833.2517,-589.6889"/>
<polygon fill="#000000" stroke="#000000" points="5833.4512,-593.1837 5843.2941,-589.2635 5833.1549,-586.19 5833.4512,-593.1837"/>
<text text-anchor="middle" x="5271.2024" y="-645.5945" font-family="Times,serif" font-size="14.00" fill="#000000">S(abort_update_failed) clear candidate</text>
</g>
<!-- update_designed_failed&#45;&gt;update_designed_failed -->
<g id="edge70" class="edge">
<title>update_designed_failed&#45;&gt;update_designed_failed</title>
<path fill="none" stroke="#ff0000" d="M4116.3743,-751.4586C4104.968,-761.4195 4122.0774,-770.7945 4167.7024,-770.7945 4196.9309,-770.7945 4214.4566,-766.947 4220.2795,-761.5628"/>
<polygon fill="#ff0000" stroke="#ff0000" points="4223.7309,-760.9537 4219.0305,-751.4586 4216.7838,-761.8124 4223.7309,-760.9537"/>
<text text-anchor="middle" x="4167.7024" y="-774.5945" font-family="Times,serif" font-size="14.00" fill="#000000">R(upd_designed recover)</text>
</g>
<!-- update_start&#45;&gt;up -->
<g id="edge73" class="edge">
<title>update_start&#45;&gt;up</title>
<path fill="none" stroke="#000000" d="M1435.0551,-461.4356C1369.2011,-463.5581 1267.5382,-460.4606 1185.7774,-429.7945 1178.4185,-427.0344 1171.2047,-422.7097 1164.7828,-418.0892"/>
<polygon fill="#000000" stroke="#000000" points="1166.6243,-415.0881 1156.5776,-411.7243 1162.3338,-420.6191 1166.6243,-415.0881"/>
<text text-anchor="middle" x="1300.2774" y="-465.5945" font-family="Times,serif" font-size="14.00" fill="#000000">S(abort update) clear candidate</text>
</g>
<!-- update_start&#45;&gt;update_acknowledged -->
<g id="edge31" class="edge">
<title>update_start&#45;&gt;update_acknowledged</title>
<path fill="none" stroke="#000000" d="M1560.7009,-467.1949C1570.8228,-468.6643 1581.2783,-469.9577 1591.1649,-470.7945 1658.2852,-476.4757 2606.1535,-484.2194 2951.0219,-486.8648"/>
<polygon fill="#000000" stroke="#000000" points="2951.0212,-490.3648 2961.0477,-486.9416 2951.0749,-483.365 2951.0212,-490.3648"/>
<text text-anchor="middle" x="2139.6649" y="-483.5945" font-family="Times,serif" font-size="14.00" fill="#000000">AV(update validation)</text>
</g>
<!-- update_start&#45;&gt;update_rejected -->
<g id="edge32" class="edge">
<title>update_start&#45;&gt;update_rejected</title>
<path fill="none" stroke="#ff0000" d="M1561.2142,-446.7238C1571.1835,-445.2367 1581.4554,-443.8519 1591.1649,-442.7945 2299.0864,-365.7027 2480.2142,-381.9057 3192.3183,-383.7945 3359.8757,-384.239 3407.7113,-341.5359 3569.3183,-385.7945 3597.6524,-393.5543 3626.1907,-410.7744 3646.7643,-425.253"/>
<polygon fill="#ff0000" stroke="#ff0000" points="3644.9147,-428.2346 3655.07,-431.2547 3649.0146,-422.5609 3644.9147,-428.2346"/>
<text text-anchor="middle" x="2417.752" y="-390.5945" font-family="Times,serif" font-size="14.00" fill="#000000">AV(update validation)</text>
</g>
<!-- update_start&#45;&gt;update_start_failed -->
<g id="edge58" class="edge">
<title>update_start&#45;&gt;update_start_failed</title>
<path fill="none" stroke="#ff0000" d="M1512.3284,-475.0187C1525.9855,-499.4979 1553.8682,-542.1859 1591.1649,-561.7945 1653.1116,-594.3627 1732.1377,-600.9055 1793.7415,-599.6809"/>
<polygon fill="#ff0000" stroke="#ff0000" points="1793.9603,-603.1764 1803.8621,-599.4073 1793.7711,-596.1789 1793.9603,-603.1764"/>
<text text-anchor="middle" x="1675.6649" y="-602.5945" font-family="Times,serif" font-size="14.00" fill="#000000">R(update start failed)</text>
</g>
<!-- update_start&#45;&gt;update_start -->
<g id="edge57" class="edge">
<title>update_start&#45;&gt;update_start</title>
<path fill="none" stroke="#000000" d="M1472.9966,-473.0848C1465.7687,-483.1837 1475.7602,-492.7945 1502.9712,-492.7945 1520.4032,-492.7945 1530.7683,-488.8502 1534.0666,-483.3601"/>
<polygon fill="#000000" stroke="#000000" points="1537.5096,-482.6462 1532.9457,-473.0848 1530.5509,-483.4054 1537.5096,-482.6462"/>
<text text-anchor="middle" x="1502.9712" y="-496.5945" font-family="Times,serif" font-size="14.00" fill="#000000">R(update start failed)</text>
</g>
</g>
</svg>
