<?xml version="1.0" encoding="UTF-8" standalone="no"?>
<!DOCTYPE svg PUBLIC "-//W3C//DTD SVG 1.1//EN"
 "http://www.w3.org/Graphics/SVG/1.1/DTD/svg11.dtd">
<!-- Generated by graphviz version 2.40.1 (0)
 -->
<!-- Title: finite_state_machine Pages: 1 -->
<svg width="576pt" height="67pt"
 viewBox="0.00 0.00 576.00 67.30" xmlns="http://www.w3.org/2000/svg" xmlns:xlink="http://www.w3.org/1999/xlink">
<g id="graph0" class="graph" transform="scale(.1432 .1432) rotate(0) translate(4 466.0574)">
<title>finite_state_machine</title>
<polygon fill="#ffffff" stroke="transparent" points="-4,4 -4,-466.0574 4019.074,-466.0574 4019.074,4 -4,4"/>
<!-- failed -->
<g id="node1" class="node">
<title>failed</title>
<ellipse fill="none" stroke="#000000" cx="1244.3627" cy="-315.0574" rx="36.2938" ry="18"/>
<text text-anchor="middle" x="1244.3627" y="-311.3574" font-family="Times,serif" font-size="14.00" fill="#000000">failed</text>
</g>
<!-- failed&#45;&gt;failed -->
<g id="edge19" class="edge">
<title>failed&#45;&gt;failed</title>
<path fill="none" stroke="#ff0000" d="M1222.6121,-329.849C1215.5305,-340.4739 1222.7807,-351.0574 1244.3627,-351.0574 1258.8632,-351.0574 1266.894,-346.2798 1268.4552,-339.9221"/>
<polygon fill="#ff0000" stroke="#ff0000" points="1271.787,-338.7967 1266.1134,-329.849 1264.9688,-340.3818 1271.787,-338.7967"/>
<text text-anchor="middle" x="1244.3627" y="-354.8574" font-family="Times,serif" font-size="14.00" fill="#000000">R(failed to up)</text>
</g>
<!-- up -->
<g id="node2" class="node">
<title>up</title>
<ellipse fill="none" stroke="#000000" cx="1470.8627" cy="-214.0574" rx="27" ry="18"/>
<text text-anchor="middle" x="1470.8627" y="-210.3574" font-family="Times,serif" font-size="14.00" fill="#000000">up</text>
</g>
<!-- failed&#45;&gt;up -->
<g id="edge18" class="edge">
<title>failed&#45;&gt;up</title>
<path fill="none" stroke="#000000" d="M1272.7619,-303.5178C1287.5417,-297.7808 1306.001,-291.0302 1322.8627,-286.0574 1367.8522,-272.7892 1385.2466,-286.5186 1425.8627,-263.0574 1436.4298,-256.9534 1445.9396,-247.5414 1453.4649,-238.5916"/>
<polygon fill="#000000" stroke="#000000" points="1456.3222,-240.6213 1459.7913,-230.6105 1450.8366,-236.273 1456.3222,-240.6213"/>
<text text-anchor="middle" x="1374.3627" y="-289.8574" font-family="Times,serif" font-size="14.00" fill="#000000">R(failed to up)</text>
</g>
<!-- deleting -->
<g id="node6" class="node">
<title>deleting</title>
<ellipse fill="none" stroke="#000000" cx="3661.2578" cy="-366.0574" rx="48.9926" ry="18"/>
<text text-anchor="middle" x="3661.2578" y="-362.3574" font-family="Times,serif" font-size="14.00" fill="#000000">deleting</text>
</g>
<!-- failed&#45;&gt;deleting -->
<g id="edge27" class="edge">
<title>failed&#45;&gt;deleting</title>
<path fill="none" stroke="#000000" d="M1273.57,-325.9981C1316.2643,-340.9836 1398.5109,-366.0574 1470.8627,-366.0574 1470.8627,-366.0574 1470.8627,-366.0574 3241.0686,-366.0574 3369.9652,-366.0574 3521.1031,-366.0574 3602.3757,-366.0574"/>
<polygon fill="#000000" stroke="#000000" points="3602.4132,-369.5575 3612.4131,-366.0574 3602.4131,-362.5575 3602.4132,-369.5575"/>
<text text-anchor="middle" x="2351.2526" y="-369.8574" font-family="Times,serif" font-size="14.00" fill="#000000">D(failed to deleting)</text>
</g>
<!-- up&#45;&gt;failed -->
<g id="edge17" class="edge">
<title>up&#45;&gt;failed</title>
<path fill="none" stroke="#ff0000" d="M1445.1833,-220.4287C1438.8717,-221.9687 1432.1277,-223.5923 1425.8627,-225.0574 1380.1897,-235.7379 1364.8273,-227.1032 1322.8627,-248.0574 1301.4311,-258.7588 1280.9744,-276.5564 1266.3197,-291.1195"/>
<polygon fill="#ff0000" stroke="#ff0000" points="1263.7023,-288.7899 1259.2106,-298.3855 1268.7059,-293.6853 1263.7023,-288.7899"/>
<text text-anchor="middle" x="1374.3627" y="-251.8574" font-family="Times,serif" font-size="14.00" fill="#000000">R(up to failed)</text>
</g>
<!-- up&#45;&gt;up -->
<g id="edge16" class="edge">
<title>up&#45;&gt;up</title>
<path fill="none" stroke="#000000" d="M1454.8007,-228.849C1449.5712,-239.4739 1454.9252,-250.0574 1470.8627,-250.0574 1481.5708,-250.0574 1487.5012,-245.2798 1488.6541,-238.9221"/>
<polygon fill="#000000" stroke="#000000" points="1492.0664,-238.1126 1486.9248,-228.849 1485.1673,-239.2971 1492.0664,-238.1126"/>
<text text-anchor="middle" x="1470.8627" y="-253.8574" font-family="Times,serif" font-size="14.00" fill="#000000">R(up to failed)</text>
</g>
<!-- update_start -->
<g id="node5" class="node">
<title>update_start</title>
<ellipse fill="none" stroke="#000000" cx="1832.3627" cy="-177.0574" rx="70.3881" ry="18"/>
<text text-anchor="middle" x="1832.3627" y="-173.3574" font-family="Times,serif" font-size="14.00" fill="#000000">update_start</text>
</g>
<!-- up&#45;&gt;update_start -->
<g id="edge6" class="edge">
<title>up&#45;&gt;update_start</title>
<path fill="none" stroke="#000000" d="M1495.9127,-206.5142C1502.3624,-204.8108 1509.3279,-203.1772 1515.8627,-202.0574 1595.6648,-188.3823 1688.0916,-182.1696 1752.3809,-179.3579"/>
<polygon fill="#000000" stroke="#000000" points="1752.6067,-182.8516 1762.4511,-178.9352 1752.3131,-175.8577 1752.6067,-182.8516"/>
<text text-anchor="middle" x="1607.8627" y="-205.8574" font-family="Times,serif" font-size="14.00" fill="#000000">U(up to update_start)</text>
</g>
<!-- up&#45;&gt;deleting -->
<g id="edge24" class="edge">
<title>up&#45;&gt;deleting</title>
<path fill="none" stroke="#000000" d="M1490.7885,-226.3217C1498.3731,-230.4234 1507.2637,-234.5783 1515.8627,-237.0574 1602.4689,-262.0256 1627.851,-250.3746 1717.8627,-255.0574 2129.9212,-276.4944 2233.5268,-269.0574 2646.1424,-269.0574 2646.1424,-269.0574 2646.1424,-269.0574 3241.0686,-269.0574 3382.0421,-269.0574 3542.9596,-321.5349 3618.2148,-349.2923"/>
<polygon fill="#000000" stroke="#000000" points="3617.2309,-352.6608 3627.8236,-352.8746 3619.6762,-346.1017 3617.2309,-352.6608"/>
<text text-anchor="middle" x="2646.1424" y="-272.8574" font-family="Times,serif" font-size="14.00" fill="#000000">D(up to deleting)</text>
</g>
<!-- update_acknowledged -->
<g id="node3" class="node">
<title>update_acknowledged</title>
<ellipse fill="none" stroke="#000000" cx="2351.2526" cy="-159.0574" rx="114.2798" ry="18"/>
<text text-anchor="middle" x="2351.2526" y="-155.3574" font-family="Times,serif" font-size="14.00" fill="#000000">update_acknowledged</text>
</g>
<!-- update_inprogress -->
<g id="node14" class="node">
<title>update_inprogress</title>
<ellipse fill="none" stroke="#000000" cx="2924.1338" cy="-62.0574" rx="97.4827" ry="18"/>
<text text-anchor="middle" x="2924.1338" y="-58.3574" font-family="Times,serif" font-size="14.00" fill="#000000">update_inprogress</text>
</g>
<!-- update_acknowledged&#45;&gt;update_inprogress -->
<g id="edge9" class="edge">
<title>update_acknowledged&#45;&gt;update_inprogress</title>
<path fill="none" stroke="#000000" d="M2429.4089,-145.824C2537.4867,-127.5243 2731.6829,-94.6431 2841.8862,-75.9835"/>
<polygon fill="#000000" stroke="#000000" points="2842.6813,-79.3988 2851.9566,-74.2784 2841.5126,-72.497 2842.6813,-79.3988"/>
<text text-anchor="middle" x="2646.1424" y="-139.8574" font-family="Times,serif" font-size="14.00" fill="#000000">A(update_ack to update_inprogress) promote</text>
</g>
<!-- update_failed -->
<g id="node4" class="node">
<title>update_failed</title>
<ellipse fill="none" stroke="#000000" cx="3241.0686" cy="-108.0574" rx="73.387" ry="18"/>
<text text-anchor="middle" x="3241.0686" y="-104.3574" font-family="Times,serif" font-size="14.00" fill="#000000">update_failed</text>
</g>
<!-- update_failed&#45;&gt;up -->
<g id="edge20" class="edge">
<title>update_failed&#45;&gt;up</title>
<path fill="none" stroke="#000000" d="M3167.4223,-108.0574C3103.1878,-108.0574 3007.4943,-108.0574 2924.1338,-108.0574 1832.3627,-108.0574 1832.3627,-108.0574 1832.3627,-108.0574 1688.2001,-108.0574 1646.2413,-117.5408 1515.8627,-179.0574 1508.3103,-182.6208 1500.848,-187.6374 1494.2367,-192.762"/>
<polygon fill="#000000" stroke="#000000" points="1491.8876,-190.1621 1486.375,-199.2099 1496.3266,-195.5746 1491.8876,-190.1621"/>
<text text-anchor="middle" x="2351.2526" y="-111.8574" font-family="Times,serif" font-size="14.00" fill="#000000">R(update_failed to up)</text>
</g>
<!-- update_failed&#45;&gt;update_failed -->
<g id="edge21" class="edge">
<title>update_failed&#45;&gt;update_failed</title>
<path fill="none" stroke="#ff0000" d="M3215.1974,-125.0947C3209.9175,-134.9153 3218.5413,-144.0574 3241.0686,-144.0574 3255.1482,-144.0574 3263.7967,-140.4862 3267.0141,-135.4103"/>
<polygon fill="#ff0000" stroke="#ff0000" points="3270.5119,-135.0692 3266.9399,-125.0947 3263.512,-135.1196 3270.5119,-135.0692"/>
<text text-anchor="middle" x="3241.0686" y="-147.8574" font-family="Times,serif" font-size="14.00" fill="#000000">R(update_failed to up)</text>
</g>
<!-- update_failed&#45;&gt;deleting -->
<g id="edge26" class="edge">
<title>update_failed&#45;&gt;deleting</title>
<path fill="none" stroke="#000000" d="M3289.7712,-121.5712C3375.2569,-146.0375 3547.6906,-198.947 3594.5121,-240.0574 3624.6646,-266.5319 3643.3926,-309.9955 3653.075,-338.32"/>
<polygon fill="#000000" stroke="#000000" points="3649.8078,-339.59 3656.2374,-348.0108 3656.4624,-337.4183 3649.8078,-339.59"/>
<text text-anchor="middle" x="3463.5121" y="-243.8574" font-family="Times,serif" font-size="14.00" fill="#000000">D(update_failed to deleting)</text>
</g>
<!-- rollback -->
<g id="node11" class="node">
<title>rollback</title>
<ellipse fill="none" stroke="#000000" cx="3661.2578" cy="-108.0574" rx="48.9926" ry="18"/>
<text text-anchor="middle" x="3661.2578" y="-104.3574" font-family="Times,serif" font-size="14.00" fill="#000000">rollback</text>
</g>
<!-- update_failed&#45;&gt;rollback -->
<g id="edge13" class="edge">
<title>update_failed&#45;&gt;rollback</title>
<path fill="none" stroke="#000000" d="M3314.7408,-108.0574C3396.4538,-108.0574 3526.6732,-108.0574 3602.0479,-108.0574"/>
<polygon fill="#000000" stroke="#000000" points="3602.3089,-111.5575 3612.3089,-108.0574 3602.3089,-104.5575 3602.3089,-111.5575"/>
<text text-anchor="middle" x="3463.5121" y="-111.8574" font-family="Times,serif" font-size="14.00" fill="#000000">S(rollback in update_failed) rollback</text>
</g>
<!-- update_start&#45;&gt;update_acknowledged -->
<g id="edge7" class="edge">
<title>update_start&#45;&gt;update_acknowledged</title>
<path fill="none" stroke="#000000" d="M1875.0661,-162.7712C1900.7601,-154.9346 1934.308,-146.0248 1964.8627,-142.0574 2063.6385,-129.2315 2177.6788,-136.9776 2256.128,-145.7612"/>
<polygon fill="#000000" stroke="#000000" points="2256.1409,-149.2856 2266.4748,-146.9488 2256.9392,-142.3312 2256.1409,-149.2856"/>
<text text-anchor="middle" x="2091.8627" y="-145.8574" font-family="Times,serif" font-size="14.00" fill="#000000">AV(update_start to update_ack)</text>
</g>
<!-- update_rejected -->
<g id="node10" class="node">
<title>update_rejected</title>
<ellipse fill="none" stroke="#000000" cx="2351.2526" cy="-217.0574" rx="86.3847" ry="18"/>
<text text-anchor="middle" x="2351.2526" y="-213.3574" font-family="Times,serif" font-size="14.00" fill="#000000">update_rejected</text>
</g>
<!-- update_start&#45;&gt;update_rejected -->
<g id="edge8" class="edge">
<title>update_start&#45;&gt;update_rejected</title>
<path fill="none" stroke="#ff0000" d="M1898.8998,-171.2992C1976.3489,-166.0406 2107.8223,-161.5954 2218.8627,-180.0574 2227.1813,-181.4404 2228.7899,-183.6202 2236.8627,-186.0574 2253.0117,-190.9327 2270.5492,-195.8648 2286.9295,-200.3172"/>
<polygon fill="#ff0000" stroke="#ff0000" points="2286.3898,-203.7967 2296.9563,-203.0227 2288.2134,-197.0384 2286.3898,-203.7967"/>
<text text-anchor="middle" x="2091.8627" y="-183.8574" font-family="Times,serif" font-size="14.00" fill="#000000">AV(update_start to update_ack)</text>
</g>
<!-- deleting&#45;&gt;deleting -->
<g id="edge29" class="edge">
<title>deleting&#45;&gt;deleting</title>
<path fill="none" stroke="#ff0000" d="M3639.6482,-382.3476C3634.4374,-392.4465 3641.6406,-402.0574 3661.2578,-402.0574 3673.825,-402.0574 3681.2976,-398.1131 3683.6754,-392.623"/>
<polygon fill="#ff0000" stroke="#ff0000" points="3687.1407,-392.0424 3682.8673,-382.3476 3680.1622,-392.5913 3687.1407,-392.0424"/>
<text text-anchor="middle" x="3661.2578" y="-405.8574" font-family="Times,serif" font-size="14.00" fill="#000000">R(deletion done)</text>
</g>
<!-- terminated -->
<g id="node8" class="node">
<title>terminated</title>
<polygon fill="none" stroke="#000000" points="4007.1056,-411.6015 4007.1056,-426.5132 3967.5258,-437.0574 3911.5516,-437.0574 3871.9719,-426.5132 3871.9719,-411.6015 3911.5516,-401.0574 3967.5258,-401.0574 4007.1056,-411.6015"/>
<polygon fill="none" stroke="#000000" points="4011.1075,-408.528 4011.1075,-429.5867 3968.05,-441.0574 3911.0275,-441.0574 3867.97,-429.5867 3867.97,-408.528 3911.0275,-397.0574 3968.05,-397.0574 4011.1075,-408.528"/>
<polygon fill="none" stroke="#000000" points="4015.1093,-405.4545 4015.1093,-432.6603 3968.5742,-445.0574 3910.5033,-445.0574 3863.9682,-432.6603 3863.9682,-405.4545 3910.5033,-393.0574 3968.5742,-393.0574 4015.1093,-405.4545"/>
<text text-anchor="middle" x="3939.5387" y="-415.3574" font-family="Times,serif" font-size="14.00" fill="#000000">terminated</text>
</g>
<!-- deleting&#45;&gt;terminated -->
<g id="edge28" class="edge">
<title>deleting&#45;&gt;terminated</title>
<path fill="none" stroke="#000000" d="M3704.7392,-374.3386C3744.9255,-381.9923 3805.7456,-393.5758 3855.416,-403.0358"/>
<polygon fill="#000000" stroke="#000000" points="3855.0344,-406.5259 3865.5127,-404.9587 3856.3441,-399.6495 3855.0344,-406.5259"/>
<text text-anchor="middle" x="3787.0035" y="-403.8574" font-family="Times,serif" font-size="14.00" fill="#000000">R(deletion done)</text>
</g>
<!-- acknowledged -->
<g id="node7" class="node">
<title>acknowledged</title>
<ellipse fill="none" stroke="#000000" cx="618.4285" cy="-351.0574" rx="77.1866" ry="18"/>
<text text-anchor="middle" x="618.4285" y="-347.3574" font-family="Times,serif" font-size="14.00" fill="#000000">acknowledged</text>
</g>
<!-- creating -->
<g id="node12" class="node">
<title>creating</title>
<ellipse fill="none" stroke="#000000" cx="976.8172" cy="-318.0574" rx="50.0912" ry="18"/>
<text text-anchor="middle" x="976.8172" y="-314.3574" font-family="Times,serif" font-size="14.00" fill="#000000">creating</text>
</g>
<!-- acknowledged&#45;&gt;creating -->
<g id="edge3" class="edge">
<title>acknowledged&#45;&gt;creating</title>
<path fill="none" stroke="#000000" d="M690.5227,-344.419C757.4204,-338.2591 855.7738,-329.2029 918.0342,-323.47"/>
<polygon fill="#000000" stroke="#000000" points="918.4482,-326.9468 928.0851,-322.5445 917.8063,-319.9763 918.4482,-326.9468"/>
<text text-anchor="middle" x="811.2716" y="-345.8574" font-family="Times,serif" font-size="14.00" fill="#000000">A(ack to creating) promote</text>
</g>
<!-- rejected -->
<g id="node9" class="node">
<title>rejected</title>
<ellipse fill="none" stroke="#000000" cx="49.3956" cy="-413.0574" rx="49.2915" ry="18"/>
<text text-anchor="middle" x="49.3956" y="-409.3574" font-family="Times,serif" font-size="14.00" fill="#000000">rejected</text>
</g>
<!-- rejected&#45;&gt;terminated -->
<g id="edge30" class="edge">
<title>rejected&#45;&gt;terminated</title>
<path fill="none" stroke="#000000" d="M91.6939,-422.5627C99.9865,-424.2225 108.6399,-425.8131 116.7912,-427.0574 206.4765,-440.7473 229.2142,-447.0574 319.9383,-447.0574 319.9383,-447.0574 319.9383,-447.0574 3661.2578,-447.0574 3726.0538,-447.0574 3798.9121,-439.4492 3853.8211,-432.1647"/>
<polygon fill="#000000" stroke="#000000" points="3854.4168,-435.6161 3863.8589,-430.8102 3853.4807,-428.679 3854.4168,-435.6161"/>
<text text-anchor="middle" x="1607.8627" y="-450.8574" font-family="Times,serif" font-size="14.00" fill="#000000">D(rejected to terminated)</text>
</g>
<!-- start -->
<g id="node13" class="node">
<title>start</title>
<ellipse fill="none" stroke="#000000" cx="319.9383" cy="-375.0574" rx="33.2788" ry="33.2788"/>
<ellipse fill="none" stroke="#000000" cx="319.9383" cy="-375.0574" rx="37.2947" ry="37.2947"/>
<text text-anchor="middle" x="319.9383" y="-371.3574" font-family="Times,serif" font-size="14.00" fill="#000000">start</text>
</g>
<!-- rejected&#45;&gt;start -->
<g id="edge22" class="edge">
<title>rejected&#45;&gt;start</title>
<path fill="none" stroke="#000000" d="M69.8446,-396.5298C82.5358,-387.3601 99.6475,-376.8624 116.7912,-372.0574 168.7662,-357.4899 231.1945,-361.4106 273.0059,-366.9215"/>
<polygon fill="#000000" stroke="#000000" points="272.7838,-370.4245 283.1728,-368.3465 273.7555,-363.4922 272.7838,-370.4245"/>
<text text-anchor="middle" x="190.7912" y="-375.8574" font-family="Times,serif" font-size="14.00" fill="#000000">U(rejected to start)</text>
</g>
<!-- update_rejected&#45;&gt;up -->
<g id="edge12" class="edge">
<title>update_rejected&#45;&gt;up</title>
<path fill="none" stroke="#000000" d="M2276.7935,-226.3215C2257.9249,-228.2863 2237.6733,-230.0655 2218.8627,-231.0574 1946.1397,-245.4373 1616.8511,-224.7306 1507.8635,-216.87"/>
<polygon fill="#000000" stroke="#000000" points="1507.9472,-213.3669 1497.7189,-216.1293 1507.4374,-220.3483 1507.9472,-213.3669"/>
<text text-anchor="middle" x="1832.3627" y="-239.8574" font-family="Times,serif" font-size="14.00" fill="#000000">S(abort update) clear candidate</text>
</g>
<!-- update_rejected&#45;&gt;update_start -->
<g id="edge23" class="edge">
<title>update_rejected&#45;&gt;update_start</title>
<path fill="none" stroke="#000000" d="M2265.9276,-214.1147C2187.5365,-210.9566 2068.1942,-205.0025 1964.8627,-195.0574 1944.6992,-193.1167 1922.8874,-190.4078 1902.8936,-187.6798"/>
<polygon fill="#000000" stroke="#000000" points="1903.318,-184.2052 1892.9322,-186.2991 1902.3569,-191.1389 1903.318,-184.2052"/>
<text text-anchor="middle" x="2091.8627" y="-215.8574" font-family="Times,serif" font-size="14.00" fill="#000000">U(update_rejected to start_update)</text>
</g>
<!-- rollback&#45;&gt;failed -->
<g id="edge15" class="edge">
<title>rollback&#45;&gt;failed</title>
<path fill="none" stroke="#ff0000" d="M3658.8838,-126.1147C3653.6157,-158.4024 3637.7848,-225.759 3594.5121,-259.0574 3468.4653,-356.0504 3400.1141,-315.0574 3241.0686,-315.0574 1470.8627,-315.0574 1470.8627,-315.0574 1470.8627,-315.0574 1408.6623,-315.0574 1336.8536,-315.0574 1291.0573,-315.0574"/>
<polygon fill="#ff0000" stroke="#ff0000" points="1290.8458,-311.5575 1280.8458,-315.0574 1290.8457,-318.5575 1290.8458,-311.5575"/>
<text text-anchor="middle" x="2351.2526" y="-318.8574" font-family="Times,serif" font-size="14.00" fill="#000000">R(rollback done)</text>
</g>
<!-- rollback&#45;&gt;up -->
<g id="edge14" class="edge">
<title>rollback&#45;&gt;up</title>
<path fill="none" stroke="#000000" d="M3626.953,-95.2652C3555.9858,-69.9861 3387.4367,-16.0574 3241.0686,-16.0574 1832.3627,-16.0574 1832.3627,-16.0574 1832.3627,-16.0574 1690.6858,-16.0574 1623.4841,38.0838 1515.8627,-54.0574 1495.9003,-71.1484 1481.5639,-144.9165 1474.9534,-186.0578"/>
<polygon fill="#000000" stroke="#000000" points="1471.4854,-185.5815 1473.4041,-196.0011 1478.402,-186.6592 1471.4854,-185.5815"/>
<text text-anchor="middle" x="2646.1424" y="-19.8574" font-family="Times,serif" font-size="14.00" fill="#000000">R(rollback done)</text>
</g>
<!-- creating&#45;&gt;failed -->
<g id="edge5" class="edge">
<title>creating&#45;&gt;failed</title>
<path fill="none" stroke="#ff0000" d="M1027.1405,-317.4931C1076.0752,-316.9444 1149.8152,-316.1175 1197.5271,-315.5825"/>
<polygon fill="#ff0000" stroke="#ff0000" points="1197.6292,-319.0817 1207.5893,-315.4697 1197.5506,-312.0821 1197.6292,-319.0817"/>
<text text-anchor="middle" x="1105.3627" y="-320.8574" font-family="Times,serif" font-size="14.00" fill="#000000">R(creating done)</text>
</g>
<!-- creating&#45;&gt;up -->
<g id="edge4" class="edge">
<title>creating&#45;&gt;up</title>
<path fill="none" stroke="#000000" d="M1014.527,-306.1219C1077.6498,-286.6262 1208.9996,-248.1164 1322.8627,-228.0574 1360.265,-221.4683 1403.5687,-217.8284 1433.6317,-215.9244"/>
<polygon fill="#000000" stroke="#000000" points="1433.9094,-219.4141 1443.6817,-215.3213 1433.49,-212.4267 1433.9094,-219.4141"/>
<text text-anchor="middle" x="1244.3627" y="-262.8574" font-family="Times,serif" font-size="14.00" fill="#000000">R(creating done)</text>
</g>
<!-- creating&#45;&gt;deleting -->
<g id="edge25" class="edge">
<title>creating&#45;&gt;deleting</title>
<path fill="none" stroke="#000000" d="M1003.1481,-333.4943C1049.9975,-359.457 1151.6353,-409.0574 1244.3627,-409.0574 1244.3627,-409.0574 1244.3627,-409.0574 3241.0686,-409.0574 3398.6825,-409.0574 3438.5366,-402.7238 3594.5121,-380.0574 3599.5101,-379.331 3604.6956,-378.4581 3609.8675,-377.5075"/>
<polygon fill="#000000" stroke="#000000" points="3610.5876,-380.9332 3619.7433,-375.602 3609.2613,-374.06 3610.5876,-380.9332"/>
<text text-anchor="middle" x="2091.8627" y="-412.8574" font-family="Times,serif" font-size="14.00" fill="#000000">D(creating to deleting)</text>
</g>
<!-- start&#45;&gt;acknowledged -->
<g id="edge1" class="edge">
<title>start&#45;&gt;acknowledged</title>
<path fill="none" stroke="#000000" d="M357.1388,-372.0663C401.3673,-368.5101 476.5337,-362.4664 534.9228,-357.7716"/>
<polygon fill="#000000" stroke="#000000" points="535.5611,-361.2317 545.2484,-356.9414 535,-354.2542 535.5611,-361.2317"/>
<text text-anchor="middle" x="449.0854" y="-373.8574" font-family="Times,serif" font-size="14.00" fill="#000000">AV(initial validation)</text>
</g>
<!-- start&#45;&gt;rejected -->
<g id="edge2" class="edge">
<title>start&#45;&gt;rejected</title>
<path fill="none" stroke="#ff0000" d="M284.2737,-386.4209C277.8378,-388.18 271.1519,-389.8203 264.7912,-391.0574 212.5268,-401.2218 152.1569,-406.8733 108.6513,-409.8942"/>
<polygon fill="#ff0000" stroke="#ff0000" points="108.2702,-406.4118 98.5259,-410.571 108.7371,-413.3962 108.2702,-406.4118"/>
<text text-anchor="middle" x="190.7912" y="-411.8574" font-family="Times,serif" font-size="14.00" fill="#000000">AV(initial validation)</text>
</g>
<!-- update_inprogress&#45;&gt;up -->
<g id="edge10" class="edge">
<title>update_inprogress&#45;&gt;up</title>
<path fill="none" stroke="#000000" d="M2828.8218,-58.0952C2529.4991,-46.4892 1621.8311,-17.9712 1515.8627,-94.0574 1500.5178,-105.0752 1485.7309,-154.2727 1477.5131,-186.1533"/>
<polygon fill="#000000" stroke="#000000" points="1474.026,-185.6698 1474.9867,-196.221 1480.8155,-187.3736 1474.026,-185.6698"/>
<text text-anchor="middle" x="2091.8627" y="-48.8574" font-family="Times,serif" font-size="14.00" fill="#000000">R(update done)</text>
</g>
<!-- update_inprogress&#45;&gt;update_failed -->
<g id="edge11" class="edge">
<title>update_inprogress&#45;&gt;update_failed</title>
<path fill="none" stroke="#ff0000" d="M3020.795,-64.4239C3060.9292,-66.6768 3107.8053,-70.9636 3149.6251,-79.0574 3163.1764,-81.68 3177.5371,-85.6439 3190.7631,-89.8057"/>
<polygon fill="#ff0000" stroke="#ff0000" points="3190.0315,-93.248 3200.6236,-93.0079 3192.1936,-86.5902 3190.0315,-93.248"/>
<text text-anchor="middle" x="3094.6251" y="-82.8574" font-family="Times,serif" font-size="14.00" fill="#000000">R(update done)</text>
</g>
</g>
</svg>
