<?xml version="1.0" encoding="UTF-8" standalone="no"?>
<!DOCTYPE svg PUBLIC "-//W3C//DTD SVG 1.1//EN"
 "http://www.w3.org/Graphics/SVG/1.1/DTD/svg11.dtd">
<!-- Generated by graphviz version 2.43.0 (0)
 -->
<!-- Title: finite_state_machine Pages: 1 -->
<svg width="459pt" height="350pt"
 viewBox="0.00 0.00 458.95 350.00" xmlns="http://www.w3.org/2000/svg" xmlns:xlink="http://www.w3.org/1999/xlink">
<g id="graph0" class="graph" transform="scale(1 1) rotate(0) translate(4 346)">
<title>finite_state_machine</title>
<polygon fill="white" stroke="transparent" points="-4,4 -4,-346 454.95,-346 454.95,4 -4,4"/>
<!-- up -->
<g id="node1" class="node">
<title>up</title>
<ellipse fill="none" stroke="black" cx="329.09" cy="-251" rx="27" ry="18"/>
<text text-anchor="middle" x="329.09" y="-247.3" font-family="Times,serif" font-size="14.00">up</text>
</g>
<!-- up&#45;&gt;up -->
<g id="edge9" class="edge">
<title>up&#45;&gt;up</title>
<path fill="none" stroke="black" d="M354.53,-257.69C365.12,-258.15 374.09,-255.92 374.09,-251 374.09,-247.77 370.23,-245.7 364.58,-244.79"/>
<polygon fill="black" stroke="black" points="364.69,-241.29 354.53,-244.31 364.36,-248.28 364.69,-241.29"/>
</g>
<!-- update_start -->
<g id="node2" class="node">
<title>update_start</title>
<ellipse fill="none" stroke="black" cx="223.09" cy="-178" rx="69.59" ry="18"/>
<text text-anchor="middle" x="223.09" y="-174.3" font-family="Times,serif" font-size="14.00">update_start</text>
</g>
<!-- up&#45;&gt;update_start -->
<g id="edge1" class="edge">
<title>up&#45;&gt;update_start</title>
<path fill="none" stroke="black" d="M310.63,-237.63C295.44,-227.46 273.54,-212.79 255.45,-200.67"/>
<polygon fill="black" stroke="black" points="257.18,-197.62 246.92,-194.96 253.28,-203.43 257.18,-197.62"/>
</g>
<!-- update_acknowledged -->
<g id="node3" class="node">
<title>update_acknowledged</title>
<ellipse fill="none" stroke="black" cx="113.09" cy="-105" rx="113.18" ry="18"/>
<text text-anchor="middle" x="113.09" y="-101.3" font-family="Times,serif" font-size="14.00">update_acknowledged</text>
</g>
<!-- update_start&#45;&gt;update_acknowledged -->
<g id="edge2" class="edge">
<title>update_start&#45;&gt;update_acknowledged</title>
<path fill="none" stroke="black" d="M198.4,-161.07C183.44,-151.41 164.12,-138.94 147.65,-128.31"/>
<polygon fill="black" stroke="black" points="149.14,-125.1 138.84,-122.62 145.34,-130.98 149.14,-125.1"/>
</g>
<!-- update_rejected -->
<g id="node5" class="node">
<title>update_rejected</title>
<ellipse fill="none" stroke="black" cx="329.09" cy="-105" rx="85.29" ry="18"/>
<text text-anchor="middle" x="329.09" y="-101.3" font-family="Times,serif" font-size="14.00">update_rejected</text>
</g>
<!-- update_start&#45;&gt;update_rejected -->
<g id="edge3" class="edge">
<title>update_start&#45;&gt;update_rejected</title>
<path fill="none" stroke="red" d="M241.87,-160.53C255.57,-150.63 274.41,-137.91 291.12,-127.25"/>
<polygon fill="red" stroke="red" points="293.04,-130.18 299.63,-121.89 289.31,-124.26 293.04,-130.18"/>
</g>
<!-- update_inprogress -->
<g id="node4" class="node">
<title>update_inprogress</title>
<ellipse fill="none" stroke="black" cx="290.09" cy="-18" rx="96.68" ry="18"/>
<text text-anchor="middle" x="290.09" y="-14.3" font-family="Times,serif" font-size="14.00">update_inprogress</text>
</g>
<!-- update_acknowledged&#45;&gt;update_inprogress -->
<g id="edge4" class="edge">
<title>update_acknowledged&#45;&gt;update_inprogress</title>
<path fill="none" stroke="black" d="M146.8,-87.81C175.43,-74.06 216.68,-54.25 247.58,-39.42"/>
<polygon fill="black" stroke="black" points="249.31,-42.47 256.81,-34.98 246.28,-36.16 249.31,-42.47"/>
<text text-anchor="middle" x="243.59" y="-57.8" font-family="Times,serif" font-size="14.00">promote</text>
</g>
<!-- update_inprogress&#45;&gt;up -->
<g id="edge5" class="edge">
<title>update_inprogress&#45;&gt;up</title>
<path fill="none" stroke="black" d="M354.91,-31.39C386.44,-40.99 421.65,-57.81 441.09,-87 455.68,-108.91 451.82,-182.21 443.09,-196 426.06,-222.91 391.59,-236.67 364.99,-243.54"/>
<polygon fill="black" stroke="black" points="364.16,-240.14 355.24,-245.85 365.77,-246.95 364.16,-240.14"/>
</g>
<!-- update_rejected&#45;&gt;up -->
<g id="edge7" class="edge">
<title>update_rejected&#45;&gt;up</title>
<path fill="none" stroke="black" d="M329.09,-123.06C329.09,-147.62 329.09,-193.21 329.09,-222.55"/>
<polygon fill="black" stroke="black" points="325.59,-222.92 329.09,-232.92 332.59,-222.92 325.59,-222.92"/>
<text text-anchor="middle" x="384.09" y="-174.3" font-family="Times,serif" font-size="14.00">clear candidate</text>
</g>
<!-- update_rejected&#45;&gt;update_start -->
<g id="edge10" class="edge">
<title>update_rejected&#45;&gt;update_start</title>
<path fill="none" stroke="black" d="M310.1,-122.61C296.22,-132.65 277.13,-145.52 260.32,-156.22"/>
<polygon fill="black" stroke="black" points="258.37,-153.31 251.77,-161.59 262.1,-159.24 258.37,-153.31"/>
</g>
<!-- update_rejected&#45;&gt;update_rejected -->
<g id="edge6" class="edge">
<title>update_rejected&#45;&gt;update_rejected</title>
<path fill="none" stroke="black" d="M409.1,-111.3C422.76,-110.44 432.23,-108.34 432.23,-105 432.23,-102.57 427.23,-100.8 419.26,-99.68"/>
<polygon fill="black" stroke="black" points="419.39,-96.18 409.1,-98.7 418.71,-103.15 419.39,-96.18"/>
</g>
<!-- rollback -->
<g id="node6" class="node">
<title>rollback</title>
<ellipse fill="none" stroke="black" cx="329.09" cy="-324" rx="48.19" ry="18"/>
<text text-anchor="middle" x="329.09" y="-320.3" font-family="Times,serif" font-size="14.00">rollback</text>
</g>
<!-- rollback&#45;&gt;up -->
<g id="edge8" class="edge">
<title>rollback&#45;&gt;up</title>
<path fill="none" stroke="black" d="M329.09,-305.81C329.09,-297.79 329.09,-288.05 329.09,-279.07"/>
<polygon fill="black" stroke="black" points="332.59,-279.03 329.09,-269.03 325.59,-279.03 332.59,-279.03"/>
</g>
</g>
</svg>
