<?xml version="1.0" encoding="UTF-8" standalone="no"?><svg xmlns="http://www.w3.org/2000/svg" xmlns:xlink="http://www.w3.org/1999/xlink" contentScriptType="application/ecmascript" contentStyleType="text/css" height="271px" preserveAspectRatio="none" style="width:879px;height:271px;" version="1.1" viewBox="0 0 879 271" width="879px" zoomAndPan="magnify"><defs/><g><!--class Rule--><rect fill="#F8F8F8" height="48" id="Rule" style="stroke: #383838; stroke-width: 1.5;" width="59" x="6" y="111.5"/><ellipse cx="21" cy="127.5" fill="#C2C2C2" rx="11" ry="11" style="stroke: #383838; stroke-width: 1.0;"/><path d="M23.9688,133.1406 Q23.3906,133.4375 22.75,133.5781 Q22.1094,133.7344 21.4063,133.7344 Q18.9063,133.7344 17.5781,132.0938 Q16.2656,130.4375 16.2656,127.3125 Q16.2656,124.1875 17.5781,122.5313 Q18.9063,120.875 21.4063,120.875 Q22.1094,120.875 22.75,121.0313 Q23.4063,121.1875 23.9688,121.4844 L23.9688,124.2031 Q23.3438,123.625 22.75,123.3594 Q22.1563,123.0781 21.5313,123.0781 Q20.1875,123.0781 19.5,124.1563 Q18.8125,125.2188 18.8125,127.3125 Q18.8125,129.4063 19.5,130.4844 Q20.1875,131.5469 21.5313,131.5469 Q22.1563,131.5469 22.75,131.2813 Q23.3438,131 23.9688,130.4219 L23.9688,133.1406 Z "/><text fill="#000000" font-family="sans-serif" font-size="12" lengthAdjust="spacingAndGlyphs" textLength="27" x="35" y="131.6543">Rule</text><line style="stroke: #383838; stroke-width: 1.5;" x1="7" x2="64" y1="143.5" y2="143.5"/><line style="stroke: #383838; stroke-width: 1.5;" x1="7" x2="64" y1="151.5" y2="151.5"/><!--class NamedObject--><rect fill="#F8F8F8" height="60.8047" id="NamedObject" style="stroke: #383838; stroke-width: 1.5;" width="116" x="224" y="104"/><ellipse cx="239" cy="120" fill="#C2C2C2" rx="11" ry="11" style="stroke: #383838; stroke-width: 1.0;"/><path d="M241.9688,125.6406 Q241.3906,125.9375 240.75,126.0781 Q240.1094,126.2344 239.4063,126.2344 Q236.9063,126.2344 235.5781,124.5938 Q234.2656,122.9375 234.2656,119.8125 Q234.2656,116.6875 235.5781,115.0313 Q236.9063,113.375 239.4063,113.375 Q240.1094,113.375 240.75,113.5313 Q241.4063,113.6875 241.9688,113.9844 L241.9688,116.7031 Q241.3438,116.125 240.75,115.8594 Q240.1563,115.5781 239.5313,115.5781 Q238.1875,115.5781 237.5,116.6563 Q236.8125,117.7188 236.8125,119.8125 Q236.8125,121.9063 237.5,122.9844 Q238.1875,124.0469 239.5313,124.0469 Q240.1563,124.0469 240.75,123.7813 Q241.3438,123.5 241.9688,122.9219 L241.9688,125.6406 Z "/><text fill="#000000" font-family="sans-serif" font-size="12" lengthAdjust="spacingAndGlyphs" textLength="84" x="253" y="124.1543">NamedObject</text><line style="stroke: #383838; stroke-width: 1.5;" x1="225" x2="339" y1="136" y2="136"/><text fill="#000000" font-family="sans-serif" font-size="11" lengthAdjust="spacingAndGlyphs" textLength="68" x="230" y="150.2104">string name</text><line style="stroke: #383838; stroke-width: 1.5;" x1="225" x2="339" y1="156.8047" y2="156.8047"/><!--class Host--><rect fill="#F8F8F8" height="60.8047" id="Host" style="stroke: #383838; stroke-width: 1.5;" width="61" x="466" y="8"/><ellipse cx="481" cy="24" fill="#C2C2C2" rx="11" ry="11" style="stroke: #383838; stroke-width: 1.0;"/><path d="M483.9688,29.6406 Q483.3906,29.9375 482.75,30.0781 Q482.1094,30.2344 481.4063,30.2344 Q478.9063,30.2344 477.5781,28.5938 Q476.2656,26.9375 476.2656,23.8125 Q476.2656,20.6875 477.5781,19.0313 Q478.9063,17.375 481.4063,17.375 Q482.1094,17.375 482.75,17.5313 Q483.4063,17.6875 483.9688,17.9844 L483.9688,20.7031 Q483.3438,20.125 482.75,19.8594 Q482.1563,19.5781 481.5313,19.5781 Q480.1875,19.5781 479.5,20.6563 Q478.8125,21.7188 478.8125,23.8125 Q478.8125,25.9063 479.5,26.9844 Q480.1875,28.0469 481.5313,28.0469 Q482.1563,28.0469 482.75,27.7813 Q483.3438,27.5 483.9688,26.9219 L483.9688,29.6406 Z "/><text fill="#000000" font-family="sans-serif" font-size="12" lengthAdjust="spacingAndGlyphs" textLength="29" x="495" y="28.1543">Host</text><line style="stroke: #383838; stroke-width: 1.5;" x1="467" x2="526" y1="40" y2="40"/><text fill="#000000" font-family="sans-serif" font-size="11" lengthAdjust="spacingAndGlyphs" textLength="12" x="472" y="54.2104">...</text><line style="stroke: #383838; stroke-width: 1.5;" x1="467" x2="526" y1="60.8047" y2="60.8047"/><!--class Network--><rect fill="#F8F8F8" height="60.8047" id="Network" style="stroke: #383838; stroke-width: 1.5;" width="83" x="455" y="104"/><ellipse cx="470" cy="120" fill="#C2C2C2" rx="11" ry="11" style="stroke: #383838; stroke-width: 1.0;"/><path d="M472.9688,125.6406 Q472.3906,125.9375 471.75,126.0781 Q471.1094,126.2344 470.4063,126.2344 Q467.9063,126.2344 466.5781,124.5938 Q465.2656,122.9375 465.2656,119.8125 Q465.2656,116.6875 466.5781,115.0313 Q467.9063,113.375 470.4063,113.375 Q471.1094,113.375 471.75,113.5313 Q472.4063,113.6875 472.9688,113.9844 L472.9688,116.7031 Q472.3438,116.125 471.75,115.8594 Q471.1563,115.5781 470.5313,115.5781 Q469.1875,115.5781 468.5,116.6563 Q467.8125,117.7188 467.8125,119.8125 Q467.8125,121.9063 468.5,122.9844 Q469.1875,124.0469 470.5313,124.0469 Q471.1563,124.0469 471.75,123.7813 Q472.3438,123.5 472.9688,122.9219 L472.9688,125.6406 Z "/><text fill="#000000" font-family="sans-serif" font-size="12" lengthAdjust="spacingAndGlyphs" textLength="51" x="484" y="124.1543">Network</text><line style="stroke: #383838; stroke-width: 1.5;" x1="456" x2="537" y1="136" y2="136"/><text fill="#000000" font-family="sans-serif" font-size="11" lengthAdjust="spacingAndGlyphs" textLength="12" x="461" y="150.2104">...</text><line style="stroke: #383838; stroke-width: 1.5;" x1="456" x2="537" y1="156.8047" y2="156.8047"/><!--class Group--><rect fill="#F8F8F8" height="60.8047" id="Group" style="stroke: #383838; stroke-width: 1.5;" width="70" x="461.5" y="200"/><ellipse cx="476.5" cy="216" fill="#C2C2C2" rx="11" ry="11" style="stroke: #383838; stroke-width: 1.0;"/><path d="M479.4688,221.6406 Q478.8906,221.9375 478.25,222.0781 Q477.6094,222.2344 476.9063,222.2344 Q474.4063,222.2344 473.0781,220.5938 Q471.7656,218.9375 471.7656,215.8125 Q471.7656,212.6875 473.0781,211.0313 Q474.4063,209.375 476.9063,209.375 Q477.6094,209.375 478.25,209.5313 Q478.9063,209.6875 479.4688,209.9844 L479.4688,212.7031 Q478.8438,212.125 478.25,211.8594 Q477.6563,211.5781 477.0313,211.5781 Q475.6875,211.5781 475,212.6563 Q474.3125,213.7188 474.3125,215.8125 Q474.3125,217.9063 475,218.9844 Q475.6875,220.0469 477.0313,220.0469 Q477.6563,220.0469 478.25,219.7813 Q478.8438,219.5 479.4688,218.9219 L479.4688,221.6406 Z "/><text fill="#000000" font-family="sans-serif" font-size="12" lengthAdjust="spacingAndGlyphs" textLength="38" x="490.5" y="220.1543">Group</text><line style="stroke: #383838; stroke-width: 1.5;" x1="462.5" x2="530.5" y1="232" y2="232"/><text fill="#000000" font-family="sans-serif" font-size="11" lengthAdjust="spacingAndGlyphs" textLength="12" x="467.5" y="246.2104">...</text><line style="stroke: #383838; stroke-width: 1.5;" x1="462.5" x2="530.5" y1="252.8047" y2="252.8047"/><path d="M170,200.5 L170,240.7656 A0,0 0 0 0 170,240.7656 L394,240.7656 A0,0 0 0 0 394,240.7656 L394,210.5 L384,200.5 L286,200.5 L282,165.11 L278,200.5 L170,200.5 A0,0 0 0 0 170,200.5 " fill="#ECECEC" style="stroke: #383838; stroke-width: 1.0;"/><path d="M384,200.5 L384,210.5 L394,210.5 L384,200.5 " fill="#ECECEC" style="stroke: #383838; stroke-width: 1.0;"/><text fill="#000000" font-family="sans-serif" font-size="13" lengthAdjust="spacingAndGlyphs" textLength="182" x="176" y="217.5669">This entity is used to refer to</text><text fill="#000000" font-family="sans-serif" font-size="13" lengthAdjust="spacingAndGlyphs" textLength="199" x="180" y="232.6997">an existing, unmanaged Object</text><path d="M599,114.5 L599,154.7656 L867,154.7656 L867,124.5 L857,114.5 L599,114.5 " fill="#ECECEC" style="stroke: #383838; stroke-width: 1.0;"/><path d="M857,114.5 L857,124.5 L867,124.5 L857,114.5 " fill="#ECECEC" style="stroke: #383838; stroke-width: 1.0;"/><text fill="#000000" font-family="sans-serif" font-size="13" lengthAdjust="spacingAndGlyphs" textLength="231" x="605" y="131.5669">These entities express desired state</text><text fill="#000000" font-family="sans-serif" font-size="13" lengthAdjust="spacingAndGlyphs" textLength="247" x="605" y="146.6997">over different specific types of Objects.</text><!--link Rule to NamedObject--><path d="M65.03,135.38 C103.82,135.22 174.1,134.94 223.94,134.73 " fill="none" id="Rule-NamedObject" style="stroke: #383838; stroke-width: 1.0;"/><text fill="#000000" font-family="sans-serif" font-size="13" lengthAdjust="spacingAndGlyphs" textLength="43" x="96" y="130.5669">source</text><text fill="#000000" font-family="sans-serif" font-size="13" lengthAdjust="spacingAndGlyphs" textLength="8" x="73.2029" y="130.6057">1</text><!--link Rule to NamedObject--><path d="M65.27,149.9 C74.52,153.82 84.98,157.53 95,159.5 C137.84,167.95 186.79,160.7 223.72,151.88 " fill="none" id="Rule-NamedObject" style="stroke: #383838; stroke-width: 1.0;"/><text fill="#000000" font-family="sans-serif" font-size="13" lengthAdjust="spacingAndGlyphs" textLength="39" x="98" y="155.5669">target</text><text fill="#000000" font-family="sans-serif" font-size="13" lengthAdjust="spacingAndGlyphs" textLength="8" x="73.0793" y="167.0466">1</text><!--link NamedObject to Host--><path d="M358.48,100.4 C395.62,83.62 438.25,64.36 465.97,51.84 " fill="none" id="NamedObject-Host" style="stroke: #383838; stroke-width: 1.0;"/><polygon fill="none" points="361.33,106.79,340.23,108.65,355.57,94.03,361.33,106.79" style="stroke: #383838; stroke-width: 1.0;"/><!--link NamedObject to Network--><path d="M360.51,134.5 C392.41,134.5 428.04,134.5 454.68,134.5 " fill="none" id="NamedObject-Network" style="stroke: #383838; stroke-width: 1.0;"/><polygon fill="none" points="360.23,141.5,340.23,134.5,360.23,127.5,360.23,141.5" style="stroke: #383838; stroke-width: 1.0;"/><!--link NamedObject to Group--><path d="M358.48,167.6 C370.38,172.89 382.54,178.32 394,183.5 C416.47,193.66 441.63,205.31 461.27,214.47 " fill="none" id="NamedObject-Group" style="stroke: #383838; stroke-width: 1.0;"/><polygon fill="none" points="355.59,173.98,340.13,159.48,361.25,161.17,355.59,173.98" style="stroke: #383838; stroke-width: 1.0;"/><!--link Host to N1--><path d="M527.2,50.66 C566.39,66.7 635.9,95.16 682.95,114.42 " fill="none" id="Host-N1" style="stroke: #383838; stroke-width: 1.0; stroke-dasharray: 7.0,7.0;"/><!--link Network to N1--><path d="M538.08,134.5 C555.45,134.5 576.81,134.5 598.95,134.5 " fill="none" id="Network-N1" style="stroke: #383838; stroke-width: 1.0; stroke-dasharray: 7.0,7.0;"/><!--link Group to N1--><path d="M531.6,216.54 C571.36,200.26 637.4,173.23 682.73,154.67 " fill="none" id="Group-N1" style="stroke: #383838; stroke-width: 1.0; stroke-dasharray: 7.0,7.0;"/><!--
@startuml
skinparam monochrome true
skinparam shadowing false
set namespaceSeparator ::
left to right direction

Rule "1" - - NamedObject: source
Rule "1" - - NamedObject: target

NamedObject <|- - Host
NamedObject <|- - Network
NamedObject <|- - Group

class NamedObject {
    string name
}

class Host {
    ...
}

class Network {
    ...
}

class Group {
    ...
}

note bottom of NamedObject : This entity is used to refer to \n an existing, unmanaged Object
note "These entities express desired state \nover different specific types of Objects." as N1
Host .. N1
Network .. N1
Group .. N1

@enduml

PlantUML version 1.2019.01(Sat Feb 09 16:32:04 CET 2019)
(LGPL source distribution)
Java Runtime: OpenJDK Runtime Environment
JVM: OpenJDK 64-Bit Server VM
Java Version: 1.8.0_265-b01
Operating System: Linux
OS Version: 5.8.15-201.fc32.x86_64
Default Encoding: UTF-8
Language: en
Country: US
--></g></svg>